<svg width="207" height="43" viewBox="0 0 207 43" fill="none" xmlns="http://www.w3.org/2000/svg">
<rect x="0.5" y="0.5" width="206" height="42" rx="4.5" fill="white" stroke="#E7E9FF"/>
<path d="M17.478 25.006V16.97H18.836C21.594 16.97 22.714 18.594 22.714 20.904V21.016C22.714 23.466 21.426 25.006 18.85 25.006H17.478ZM16.26 26H18.878C22.378 26 23.974 23.802 23.974 21.03V20.904C23.974 18.118 22.35 15.99 18.906 15.99H16.26V26ZM27.758 26.126C28.836 26.126 29.494 25.762 30.04 25.076V26H31.202V21.17C31.202 19.126 29.928 18.552 28.528 18.552C27.114 18.552 25.784 19.168 25.63 20.834H26.792C26.904 19.938 27.464 19.518 28.472 19.518C29.592 19.518 30.04 20.008 30.04 21.17V21.702H28.99C27.114 21.702 25.322 22.276 25.322 23.97C25.322 25.468 26.4 26.126 27.758 26.126ZM27.87 25.202C26.848 25.202 26.484 24.726 26.484 23.97C26.484 22.892 27.562 22.528 29.032 22.528H30.04V23.438C30.04 24.572 29.102 25.202 27.87 25.202ZM35.7106 26.098C36.1866 26.098 36.4666 26.028 36.7046 25.944V24.964C36.4526 25.062 36.1726 25.118 35.8086 25.118C35.2206 25.118 34.8986 24.768 34.8986 24.054V19.658H36.6066V18.678H34.8986V17.012H33.7366V18.678H32.6866V19.658H33.7366V24.166C33.7366 25.314 34.3806 26.098 35.7106 26.098ZM41.4572 26.126C43.1092 26.126 44.3272 25.356 44.5792 23.886H43.4172C43.2632 24.74 42.6052 25.16 41.4712 25.16C39.9732 25.16 39.1752 24.236 39.1192 22.57H44.6352V22.192C44.6352 19.574 43.0392 18.552 41.3452 18.552C39.3292 18.552 37.9152 20.092 37.9152 22.304V22.416C37.9152 24.67 39.3852 26.126 41.4572 26.126ZM39.1612 21.632C39.3572 20.33 40.1552 19.518 41.3452 19.518C42.5492 19.518 43.3332 20.12 43.4452 21.632H39.1612ZM50.2073 26H51.4253V21.646H52.9653L55.9473 26H57.3053L54.2393 21.562C55.6113 21.296 56.7173 20.484 56.7173 18.832V18.776C56.7173 16.774 55.1353 15.99 53.2173 15.99H50.2073V26ZM51.4253 20.68V16.97H53.3013C54.6593 16.97 55.4993 17.418 55.4993 18.776V18.832C55.4993 20.064 54.7293 20.68 53.3013 20.68H51.4253ZM60.7483 26.126C61.8263 26.126 62.4843 25.762 63.0303 25.076V26H64.1923V21.17C64.1923 19.126 62.9183 18.552 61.5183 18.552C60.1043 18.552 58.7743 19.168 58.6203 20.834H59.7823C59.8943 19.938 60.4543 19.518 61.4623 19.518C62.5823 19.518 63.0303 20.008 63.0303 21.17V21.702H61.9803C60.1043 21.702 58.3123 22.276 58.3123 23.97C58.3123 25.468 59.3903 26.126 60.7483 26.126ZM60.8603 25.202C59.8383 25.202 59.4743 24.726 59.4743 23.97C59.4743 22.892 60.5523 22.528 62.0223 22.528H63.0303V23.438C63.0303 24.572 62.0923 25.202 60.8603 25.202ZM66.4748 26H67.6368V21.562C67.6368 20.246 68.6028 19.56 69.6808 19.56C70.8568 19.56 71.4028 20.134 71.4028 21.422V26H72.5648V21.506C72.5648 19.378 71.5008 18.552 69.9888 18.552C68.7848 18.552 67.9728 19.154 67.6368 19.84V18.678H66.4748V26ZM77.768 28.674C79.812 28.674 81.254 27.638 81.268 25.51V18.678H80.106V19.854C79.686 19.14 78.93 18.552 77.712 18.552C75.696 18.552 74.296 20.204 74.296 22.192V22.29C74.296 24.306 75.71 25.762 77.628 25.762C78.692 25.762 79.686 25.09 80.106 24.376V25.44C80.106 27.008 79.196 27.694 77.754 27.694C76.508 27.694 75.808 27.26 75.64 26.42H74.45C74.646 27.652 75.598 28.674 77.768 28.674ZM77.754 24.796C76.522 24.796 75.5 23.844 75.5 22.248V22.136C75.5 20.596 76.368 19.518 77.824 19.518C79.252 19.518 80.148 20.47 80.148 22.108V22.206C80.148 23.844 79.112 24.796 77.754 24.796ZM86.6154 26.126C88.2674 26.126 89.4854 25.356 89.7374 23.886H88.5754C88.4214 24.74 87.7634 25.16 86.6294 25.16C85.1314 25.16 84.3334 24.236 84.2774 22.57H89.7934V22.192C89.7934 19.574 88.1974 18.552 86.5034 18.552C84.4874 18.552 83.0734 20.092 83.0734 22.304V22.416C83.0734 24.67 84.5434 26.126 86.6154 26.126ZM84.3194 21.632C84.5154 20.33 85.3134 19.518 86.5034 19.518C87.7074 19.518 88.4914 20.12 88.6034 21.632H84.3194ZM92.4444 26.07C92.9344 26.07 93.3404 25.678 93.3404 25.174C93.3404 24.67 92.9344 24.278 92.4444 24.278C91.9544 24.278 91.5484 24.67 91.5484 25.174C91.5484 25.678 91.9544 26.07 92.4444 26.07ZM92.4444 21.912C92.9344 21.912 93.3404 21.52 93.3404 21.016C93.3404 20.512 92.9344 20.12 92.4444 20.12C91.9544 20.12 91.5484 20.512 91.5484 21.016C91.5484 21.52 91.9544 21.912 92.4444 21.912ZM98.6974 26H99.8454L100.811 23.116H104.941L105.921 26H107.125L103.737 15.99H102.141L98.6974 26ZM102.883 16.998L104.619 22.15H101.147L102.883 16.998ZM108.831 26H110.007V15.178H108.831V26ZM112.413 26H113.589V15.178H112.413V26ZM121.814 26H123.032V16.984H125.944V15.99H118.902V16.984H121.814V26ZM127.411 26H128.573V18.678H127.411V26ZM127.971 17.152C128.391 17.152 128.741 16.802 128.741 16.382C128.741 15.962 128.391 15.612 127.971 15.612C127.551 15.612 127.201 15.962 127.201 16.382C127.201 16.802 127.551 17.152 127.971 17.152ZM130.951 26H132.113V21.52C132.113 20.204 133.093 19.56 134.045 19.56C135.053 19.56 135.599 20.092 135.599 21.38V26H136.761V21.52C136.761 20.204 137.741 19.56 138.693 19.56C139.701 19.56 140.247 20.092 140.247 21.38V26H141.409V21.464C141.409 19.336 140.261 18.552 138.945 18.552C138.035 18.552 136.943 18.972 136.439 19.924C136.061 18.944 135.235 18.552 134.297 18.552C133.247 18.552 132.449 19.112 132.113 19.798V18.678H130.951V26ZM146.69 26.126C148.342 26.126 149.56 25.356 149.812 23.886H148.65C148.496 24.74 147.838 25.16 146.704 25.16C145.206 25.16 144.408 24.236 144.352 22.57H149.868V22.192C149.868 19.574 148.272 18.552 146.578 18.552C144.562 18.552 143.148 20.092 143.148 22.304V22.416C143.148 24.67 144.618 26.126 146.69 26.126ZM144.394 21.632C144.59 20.33 145.388 19.518 146.578 19.518C147.782 19.518 148.566 20.12 148.678 21.632H144.394Z" fill="#75759E"/>
<path d="M189.829 20.0625L186.4 23.8125C186.286 23.9375 186.171 24 186 24C185.829 24 185.714 23.9375 185.6 23.8125L182.171 20.0625C181.943 19.8125 181.943 19.4375 182.171 19.1875C182.4 18.9375 182.743 18.9375 182.971 19.1875L186 22.5L189.029 19.1875C189.257 18.9375 189.6 18.9375 189.829 19.1875C190.057 19.4375 190.057 19.8125 189.829 20.0625Z" fill="#BBC4D9"/>
</svg>
