<svg width="146" height="39" viewBox="0 0 146 39" fill="none" xmlns="http://www.w3.org/2000/svg">
<g clip-path="url(#clip0_1_562)">
<path d="M0.888279 18.0701C0.643861 17.7657 0.528346 17.3777 0.566469 16.9891C0.604592 16.6006 0.793326 16.2424 1.09225 15.9913C1.39118 15.7401 1.77655 15.616 2.16585 15.6455C2.55514 15.675 2.91743 15.8557 3.17513 16.149C3.17513 16.149 5.12711 18.427 6.93368 20.3173L7.10993 20.4892L7.18043 20.5597C7.35333 20.7335 7.55951 20.8707 7.78663 20.9631C8.01375 21.0554 8.25716 21.1011 8.50231 21.0972C9.03877 21.0172 9.53169 20.756 9.8991 20.357C9.99603 20.2689 10.0621 20.2028 10.1018 20.1587C14.1688 15.7524 21.6859 6.71077 21.7079 6.68434C21.834 6.53331 21.9887 6.40861 22.163 6.31736C22.3374 6.2261 22.528 6.17008 22.724 6.15249C22.9199 6.13489 23.1175 6.15607 23.3053 6.21481C23.4931 6.27356 23.6675 6.36873 23.8185 6.49487C23.9695 6.62101 24.0942 6.77567 24.1855 6.95001C24.2767 7.12434 24.3328 7.31494 24.3504 7.51093C24.3679 7.70692 24.3468 7.90445 24.288 8.09225C24.2293 8.28005 24.1341 8.45444 24.008 8.60546C23.9859 8.6319 16.5614 17.5678 12.2961 22.1856C12.1595 22.331 12.0494 22.4456 11.9656 22.5249C11.0953 23.4142 9.9391 23.9681 8.70059 24.0891C8.05371 24.123 7.4068 24.0231 6.80028 23.7956C6.19376 23.5682 5.64067 23.2181 5.17558 22.7672L5.07864 22.6835C4.98171 22.591 4.87595 22.4896 4.7658 22.3707C2.96363 20.4892 0.897092 18.0701 0.888279 18.0613V18.0701Z" fill="#08CCAD"/>
<path d="M28.2558 8.1252C28.3808 7.96553 28.537 7.83293 28.7148 7.7354C28.8926 7.63787 29.0884 7.57746 29.2902 7.55782C29.4921 7.53819 29.6958 7.55973 29.8891 7.62116C30.0823 7.68259 30.2611 7.78262 30.4146 7.91519C30.5681 8.04775 30.693 8.21011 30.7819 8.3924C30.8708 8.57469 30.9217 8.77312 30.9316 8.97567C30.9415 9.17823 30.9102 9.38069 30.8396 9.57079C30.7689 9.76089 30.6604 9.93466 30.5206 10.0816L19.2934 23.1021C19.0281 23.3809 18.6657 23.547 18.2813 23.5658C17.8969 23.5846 17.52 23.4547 17.2288 23.2032C16.9375 22.9516 16.7543 22.5975 16.717 22.2145C16.6797 21.8314 16.7913 21.4487 17.0286 21.1457L28.2558 8.1252Z" fill="#08384D"/>
<path d="M27.9605 17.6912C28.2182 17.3897 28.5851 17.2029 28.9805 17.1719C29.3759 17.1409 29.7674 17.2683 30.0689 17.526C30.3704 17.7837 30.5572 18.1506 30.5882 18.546C30.6192 18.9414 30.4918 19.3329 30.2341 19.6344L22.9726 28.1781C22.7102 28.4637 22.3474 28.6363 21.9604 28.6599C21.5733 28.6834 21.1922 28.5559 20.8972 28.3043C20.6022 28.0526 20.4163 27.6964 20.3785 27.3105C20.3407 26.9246 20.454 26.5391 20.6946 26.235L27.9605 17.6912Z" fill="#08384D"/>
<path d="M29.0796 25.7591C29.2045 25.6005 29.3603 25.4687 29.5374 25.3718C29.7145 25.2749 29.9094 25.2148 30.1104 25.1951C30.3114 25.1754 30.5142 25.1966 30.7068 25.2573C30.8994 25.318 31.0777 25.417 31.231 25.5483C31.3844 25.6797 31.5096 25.8407 31.5992 26.0217C31.6887 26.2026 31.7408 26.3999 31.7522 26.6014C31.7636 26.803 31.7341 27.0049 31.6656 27.1948C31.597 27.3847 31.4908 27.5588 31.3532 27.7066C30.7848 28.3676 30.2957 28.9668 29.8022 29.5617C26.0525 34.1222 22.1882 38.8148 15.3629 38.9602C12.4371 39.0175 9.78013 37.7133 7.55056 35.9023C4.85847 33.625 2.67307 30.8091 1.13503 27.6361C0.971425 27.2739 0.958436 26.8614 1.09891 26.4896C1.23939 26.1177 1.52183 25.8169 1.8841 25.6533C2.24637 25.4897 2.6588 25.4767 3.03065 25.6172C3.4025 25.7577 3.70332 26.0401 3.86692 26.4024C5.20495 29.1606 7.1086 31.6062 9.45407 33.5802C11.1901 34.9946 13.2038 36.0125 15.3144 35.9684C20.765 35.8582 24.1886 31.6987 27.5065 27.6626C28.0573 26.9928 28.6081 26.3407 29.0928 25.7591H29.0796Z" fill="#08384D"/>
<path d="M49.7362 15.8713L56.8523 24.5693H51.6969L45.44 16.7658V24.5693H41.0073V7.12048H45.44V14.9592L51.3532 7.39808H56.6408L49.7362 15.8713Z" fill="#08384D"/>
<path d="M70.7012 22.45C69.2102 23.9598 67.2414 24.9055 65.1309 25.1257C63.0203 25.3459 60.8988 24.8269 59.1282 23.6572C57.3577 22.4876 56.0478 20.7398 55.4222 18.7121C54.7966 16.6844 54.894 14.5025 55.6978 12.5386C56.5016 10.5747 57.9619 8.95061 59.8296 7.94337C61.6974 6.93614 63.8567 6.60821 65.9393 7.01555C68.0218 7.42289 69.8985 8.54027 71.249 10.177C72.5996 11.8137 73.3404 13.8684 73.3449 15.9904C73.3695 17.1906 73.1475 18.3832 72.6927 19.4942C72.238 20.6053 71.5602 21.6113 70.7012 22.45ZM60.8972 19.3656C61.7939 20.2254 62.9882 20.7055 64.2306 20.7055C65.4729 20.7055 66.6672 20.2254 67.5639 19.3656C68.425 18.4421 68.9038 17.2265 68.9038 15.9639C68.9038 14.7013 68.425 13.4857 67.5639 12.5623C66.6683 11.7004 65.4736 11.2189 64.2306 11.2189C62.9876 11.2189 61.7929 11.7004 60.8972 12.5623C60.0578 13.4964 59.5934 14.708 59.5934 15.9639C59.5934 17.2198 60.0578 18.4314 60.8972 19.3656Z" fill="#08384D"/>
<path d="M83.8187 6.90464C84.6814 6.8729 85.5411 7.02459 86.341 7.34968C87.1408 7.67477 87.8625 8.16586 88.4585 8.79052C89.6952 10.0742 90.3135 11.8147 90.3135 14.012V24.565H85.8808V14.5627C85.9102 14.0884 85.8446 13.6131 85.688 13.1644C85.5314 12.7157 85.2868 12.3028 84.9687 11.9498C84.6392 11.6333 84.2483 11.3879 83.82 11.2287C83.3918 11.0695 82.9354 11 82.4792 11.0245C81.9677 10.9978 81.4565 11.0802 80.9794 11.2664C80.5023 11.4525 80.0703 11.738 79.712 12.104C79.0335 12.8267 78.6986 13.8886 78.6986 15.2854V24.565H74.2615V7.38051H78.6986V9.30606C79.7532 7.70512 81.4598 6.90464 83.8187 6.90464Z" fill="#08384D"/>
<path d="M101.135 0.0308323V4.2917C98.7089 4.1272 97.4942 5.10098 97.4913 7.21306V7.38489H101.135V11.6458H97.4913V24.5693H93.0586V11.6458H90.5823V7.38489H93.0586V7.21306C93.0586 4.75876 93.7416 2.91254 95.1031 1.66116C96.4646 0.409777 98.4607 -0.1322 101.135 0.0308323Z" fill="#08384D"/>
<path d="M114.689 9.41184V7.38495H119.122V24.5694H114.689V22.5425C113.358 24.214 111.492 25.0497 109.089 25.0497C107.975 25.0594 106.872 24.8326 105.853 24.3845C104.834 23.9363 103.921 23.277 103.176 22.45C101.602 20.672 100.734 18.3799 100.734 16.0058C100.734 13.6317 101.602 11.3396 103.176 9.56165C103.915 8.72418 104.826 8.05489 105.846 7.59885C106.866 7.14282 107.972 6.91062 109.089 6.91789C111.495 6.90908 113.361 7.7404 114.689 9.41184ZM106.511 19.4802C107.434 20.3432 108.65 20.8233 109.913 20.8233C111.176 20.8233 112.392 20.3432 113.314 19.4802C113.771 19.0212 114.128 18.4735 114.365 17.871C114.601 17.2686 114.711 16.624 114.689 15.9772C114.714 15.3347 114.604 14.6942 114.367 14.0964C114.131 13.4986 113.772 12.9566 113.314 12.505C112.402 11.6231 111.182 11.1301 109.913 11.1301C108.644 11.1301 107.424 11.6231 106.511 12.505C106.066 12.9635 105.72 13.5079 105.492 14.1049C105.265 14.7019 105.162 15.339 105.189 15.9772C105.164 16.6198 105.268 17.2611 105.495 17.8628C105.722 18.4645 106.067 19.0145 106.511 19.4802Z" fill="#08384D"/>
<path d="M139.505 6.90459C140.385 6.86548 141.263 7.01689 142.079 7.34846C142.895 7.68003 143.63 8.18393 144.233 8.82572C145.408 10.1123 145.996 11.8308 145.996 13.9811V24.5561H141.567V14.2939C141.621 13.4265 141.353 12.5697 140.814 11.8881C140.544 11.5965 140.212 11.3683 139.844 11.2198C139.475 11.0712 139.078 11.006 138.681 11.0289C138.239 11.0044 137.797 11.0815 137.389 11.2541C136.982 11.4267 136.619 11.6903 136.328 12.0247C135.764 12.69 135.487 13.6506 135.487 14.9108V24.5693H131.067V14.2939C131.121 13.4265 130.853 12.5697 130.314 11.8881C130.044 11.5965 129.712 11.3683 129.344 11.2198C128.975 11.0712 128.578 11.006 128.181 11.0289C127.738 11.0095 127.296 11.0907 126.889 11.2662C126.481 11.4416 126.119 11.707 125.828 12.0423C125.194 12.859 124.881 13.8792 124.947 14.9108V24.5693H120.492V7.38488H124.925V9.20467C125.956 7.67128 127.548 6.90459 129.701 6.90459C131.854 6.90459 133.413 7.72856 134.376 9.3765C135.507 7.72856 137.217 6.90459 139.505 6.90459Z" fill="#08384D"/>
<path d="M46.5681 35.7745C45.9211 36.0375 45.2261 36.1621 44.528 36.1402C42.3513 36.1402 40.7122 34.7655 40.7122 32.2319C40.7122 29.8172 42.3513 28.1781 44.7483 28.1781C45.3774 28.1526 46.0042 28.2701 46.5813 28.5218L46.339 29.3325C45.8484 29.1142 45.316 29.006 44.7791 29.0153C42.9726 29.0153 41.7697 30.1697 41.7697 32.1966C41.7697 34.0869 42.858 35.303 44.7351 35.303C45.2936 35.3106 45.8475 35.201 46.361 34.9814L46.5681 35.7745Z" fill="#08CCAD"/>
<path d="M50.1064 28.4071C50.7388 28.2925 51.3805 28.238 52.0232 28.2441C53.0851 28.2441 53.7857 28.4424 54.2571 28.8742C54.456 29.062 54.6127 29.29 54.7167 29.543C54.8208 29.7959 54.8699 30.0681 54.8608 30.3415C54.8678 30.7838 54.7293 31.2161 54.4665 31.572C54.2038 31.9278 53.8315 32.1875 53.4067 32.3111V32.3464C54.0016 32.5534 54.3585 33.1042 54.5435 33.9062C54.6769 34.6293 54.8761 35.3387 55.1384 36.0256H54.1073C53.8752 35.4286 53.7026 34.8102 53.5918 34.1794C53.3627 33.113 52.9485 32.7121 52.0452 32.6812H51.1067V36.0256H50.1064V28.4071ZM51.1067 31.9322H52.1245C53.1908 31.9322 53.887 31.3461 53.887 30.4649C53.887 29.4691 53.1644 29.0329 52.1245 29.024C51.7947 29.0149 51.4649 29.0445 51.1419 29.1122L51.1067 31.9322Z" fill="#08CCAD"/>
<path d="M62.5629 32.4037H59.5578V35.1885H62.9066V36.0257H58.562V28.3015H62.7347V29.1387H59.5578V31.5798H62.5629V32.4037Z" fill="#08CCAD"/>
<path d="M66.4888 28.4072C67.1902 28.2998 67.8986 28.2453 68.6082 28.2441C70.0402 28.2441 71.0625 28.579 71.7366 29.2091C72.1076 29.565 72.397 29.997 72.5849 30.4755C72.7728 30.954 72.8547 31.4675 72.825 31.9807C72.8519 32.5299 72.7674 33.0788 72.5765 33.5945C72.3857 34.1102 72.0925 34.5819 71.7146 34.9813C70.992 35.704 69.8023 36.0917 68.2997 36.0917C67.6949 36.0961 67.0903 36.0667 66.4888 36.0036V28.4072ZM67.489 35.2281C67.8217 35.2755 68.1577 35.2946 68.4936 35.2854C70.6263 35.2854 71.7851 34.0957 71.7851 32.0115C71.7851 30.1873 70.7628 29.0329 68.6566 29.0329C68.265 29.0261 67.8736 29.0601 67.489 29.1342V35.2281Z" fill="#08CCAD"/>
<path d="M77.4076 28.3015V36.0257H76.4294V28.3015H77.4076Z" fill="#08CCAD"/>
<path d="M82.9067 29.1519H80.5581V28.3015H86.2862V29.1519H83.9201V36.0257H82.9067V29.1519Z" fill="#08CCAD"/>
</g>
<defs>
<clipPath id="clip0_1_562">
<rect width="145.46" height="38.9602" fill="white" transform="translate(0.540283)"/>
</clipPath>
</defs>
</svg>
