<svg width="1087" height="262" viewBox="0 0 1087 262" fill="none" xmlns="http://www.w3.org/2000/svg">
<rect x="1" y="1" width="260" height="122" rx="20" fill="white" stroke="#E2E2EA"/>
<path d="M30.318 46H31.536V36.984H34.448V35.99H27.406V36.984H30.318V46ZM38.0229 45.16C36.5389 45.16 35.6289 44.068 35.6289 42.402V42.29C35.6289 40.61 36.5529 39.518 38.0229 39.518C39.4789 39.518 40.4169 40.61 40.4169 42.304V42.402C40.4169 44.054 39.4929 45.16 38.0229 45.16ZM38.0089 46.126C40.0949 46.126 41.6209 44.6 41.6209 42.388V42.276C41.6209 40.078 40.0949 38.552 38.0229 38.552C35.9509 38.552 34.4249 40.092 34.4249 42.29V42.402C34.4249 44.544 35.9229 46.126 38.0089 46.126ZM45.6461 46.098C46.1221 46.098 46.4021 46.028 46.6401 45.944V44.964C46.3881 45.062 46.1081 45.118 45.7441 45.118C45.1561 45.118 44.8341 44.768 44.8341 44.054V39.658H46.5421V38.678H44.8341V37.012H43.6721V38.678H42.6221V39.658H43.6721V44.166C43.6721 45.314 44.3161 46.098 45.6461 46.098ZM50.2991 46.126C51.3771 46.126 52.0351 45.762 52.5811 45.076V46H53.7431V41.17C53.7431 39.126 52.4691 38.552 51.0691 38.552C49.6551 38.552 48.3251 39.168 48.1711 40.834H49.3331C49.4451 39.938 50.0051 39.518 51.0131 39.518C52.1331 39.518 52.5811 40.008 52.5811 41.17V41.702H51.5311C49.6551 41.702 47.8631 42.276 47.8631 43.97C47.8631 45.468 48.9411 46.126 50.2991 46.126ZM50.4111 45.202C49.3891 45.202 49.0251 44.726 49.0251 43.97C49.0251 42.892 50.1031 42.528 51.5731 42.528H52.5811V43.438C52.5811 44.572 51.6431 45.202 50.4111 45.202ZM56.0536 46H57.2296V35.178H56.0536V46ZM63.3407 46H64.5167V35.178H63.3407V46ZM69.9468 45.16C68.4628 45.16 67.5528 44.068 67.5528 42.402V42.29C67.5528 40.61 68.4768 39.518 69.9468 39.518C71.4028 39.518 72.3408 40.61 72.3408 42.304V42.402C72.3408 44.054 71.4168 45.16 69.9468 45.16ZM69.9328 46.126C72.0188 46.126 73.5448 44.6 73.5448 42.388V42.276C73.5448 40.078 72.0188 38.552 69.9468 38.552C67.8748 38.552 66.3488 40.092 66.3488 42.29V42.402C66.3488 44.544 67.8468 46.126 69.9328 46.126ZM77.178 46.126C78.256 46.126 78.914 45.762 79.46 45.076V46H80.622V41.17C80.622 39.126 79.348 38.552 77.948 38.552C76.534 38.552 75.204 39.168 75.05 40.834H76.212C76.324 39.938 76.884 39.518 77.892 39.518C79.012 39.518 79.46 40.008 79.46 41.17V41.702H78.41C76.534 41.702 74.742 42.276 74.742 43.97C74.742 45.468 75.82 46.126 77.178 46.126ZM77.29 45.202C76.268 45.202 75.904 44.726 75.904 43.97C75.904 42.892 76.982 42.528 78.452 42.528H79.46V43.438C79.46 44.572 78.522 45.202 77.29 45.202ZM82.9045 46H84.0665V41.562C84.0665 40.246 85.0325 39.56 86.1105 39.56C87.2865 39.56 87.8325 40.134 87.8325 41.422V46H88.9945V41.506C88.9945 39.378 87.9305 38.552 86.4185 38.552C85.2145 38.552 84.4025 39.154 84.0665 39.84V38.678H82.9045V46ZM98.0148 46.126C99.7788 46.126 101.053 44.95 101.207 43.368H100.129C100.003 44.558 99.0648 45.16 98.0288 45.16C96.6148 45.16 95.6348 44.208 95.6348 42.416V42.304C95.6348 40.582 96.6568 39.518 97.9868 39.518C98.9948 39.518 99.8348 39.952 100.017 41.114H101.165C100.941 39.252 99.5128 38.552 97.9868 38.552C96.0268 38.552 94.4308 40.064 94.4308 42.304V42.416C94.4308 44.684 95.9708 46.126 98.0148 46.126ZM106.013 45.16C104.529 45.16 103.619 44.068 103.619 42.402V42.29C103.619 40.61 104.543 39.518 106.013 39.518C107.469 39.518 108.407 40.61 108.407 42.304V42.402C108.407 44.054 107.483 45.16 106.013 45.16ZM105.999 46.126C108.085 46.126 109.611 44.6 109.611 42.388V42.276C109.611 40.078 108.085 38.552 106.013 38.552C103.941 38.552 102.415 40.092 102.415 42.29V42.402C102.415 44.544 103.913 46.126 105.999 46.126ZM111.438 46H112.614V35.178H111.438V46ZM115.02 46H116.196V35.178H115.02V46ZM121.57 46.126C123.222 46.126 124.44 45.356 124.692 43.886H123.53C123.376 44.74 122.718 45.16 121.584 45.16C120.086 45.16 119.288 44.236 119.232 42.57H124.748V42.192C124.748 39.574 123.152 38.552 121.458 38.552C119.442 38.552 118.028 40.092 118.028 42.304V42.416C118.028 44.67 119.498 46.126 121.57 46.126ZM119.274 41.632C119.47 40.33 120.268 39.518 121.458 39.518C122.662 39.518 123.446 40.12 123.558 41.632H119.274ZM129.569 46.126C131.333 46.126 132.607 44.95 132.761 43.368H131.683C131.557 44.558 130.619 45.16 129.583 45.16C128.169 45.16 127.189 44.208 127.189 42.416V42.304C127.189 40.582 128.211 39.518 129.541 39.518C130.549 39.518 131.389 39.952 131.571 41.114H132.719C132.495 39.252 131.067 38.552 129.541 38.552C127.581 38.552 125.985 40.064 125.985 42.304V42.416C125.985 44.684 127.525 46.126 129.569 46.126ZM136.742 46.098C137.218 46.098 137.498 46.028 137.736 45.944V44.964C137.484 45.062 137.204 45.118 136.84 45.118C136.252 45.118 135.93 44.768 135.93 44.054V39.658H137.638V38.678H135.93V37.012H134.768V38.678H133.718V39.658H134.768V44.166C134.768 45.314 135.412 46.098 136.742 46.098ZM142.488 46.126C144.14 46.126 145.358 45.356 145.61 43.886H144.448C144.294 44.74 143.636 45.16 142.502 45.16C141.004 45.16 140.206 44.236 140.15 42.57H145.666V42.192C145.666 39.574 144.07 38.552 142.376 38.552C140.36 38.552 138.946 40.092 138.946 42.304V42.416C138.946 44.67 140.416 46.126 142.488 46.126ZM140.192 41.632C140.388 40.33 141.186 39.518 142.376 39.518C143.58 39.518 144.364 40.12 144.476 41.632H140.192ZM150.207 46.126C151.271 46.126 152.293 45.454 152.713 44.74V46H153.875V35.178H152.713V39.854C152.293 39.14 151.537 38.552 150.319 38.552C148.303 38.552 146.903 40.134 146.903 42.374V42.486C146.903 44.768 148.289 46.126 150.207 46.126ZM150.333 45.16C149.101 45.16 148.107 44.278 148.107 42.43V42.318C148.107 40.54 148.975 39.518 150.431 39.518C151.859 39.518 152.755 40.4 152.755 42.276V42.388C152.755 44.264 151.691 45.16 150.333 45.16Z" fill="#75759E"/>
<path d="M28.848 90H32.304V77.784L39.456 90H43.344V72.84H39.888V84.144L33.36 72.84H28.848V90ZM49.4355 90H53.3235V72.84H49.9155L45.9555 75.648V78.96L49.4355 76.68V90ZM64.1634 87.216C61.7634 87.216 60.4914 85.416 60.4914 81.816V81C60.4914 77.448 61.7154 75.6 64.1154 75.6C66.4914 75.6 67.6914 77.544 67.6914 81V81.768C67.6914 85.368 66.5874 87.216 64.1634 87.216ZM64.0674 90.264C68.6994 90.264 71.5554 87 71.5554 81.744V80.952C71.5554 75.624 68.5074 72.6 64.0914 72.6C59.6754 72.6 56.6034 75.744 56.6034 81.024V81.84C56.6034 87.096 59.5074 90.264 64.0674 90.264ZM81.2728 87.216C78.8728 87.216 77.6008 85.416 77.6008 81.816V81C77.6008 77.448 78.8248 75.6 81.2248 75.6C83.6008 75.6 84.8008 77.544 84.8008 81V81.768C84.8008 85.368 83.6968 87.216 81.2728 87.216ZM81.1768 90.264C85.8088 90.264 88.6648 87 88.6648 81.744V80.952C88.6648 75.624 85.6168 72.6 81.2008 72.6C76.7848 72.6 73.7128 75.744 73.7128 81.024V81.84C73.7128 87.096 76.6168 90.264 81.1768 90.264ZM91.2109 92.952L94.4749 87.36L91.2109 86.136L89.0989 92.064L91.2109 92.952ZM103.14 87.216C100.74 87.216 99.468 85.416 99.468 81.816V81C99.468 77.448 100.692 75.6 103.092 75.6C105.468 75.6 106.668 77.544 106.668 81V81.768C106.668 85.368 105.564 87.216 103.14 87.216ZM103.044 90.264C107.676 90.264 110.532 87 110.532 81.744V80.952C110.532 75.624 107.484 72.6 103.068 72.6C98.652 72.6 95.58 75.744 95.58 81.024V81.84C95.58 87.096 98.484 90.264 103.044 90.264ZM120.249 87.216C117.849 87.216 116.577 85.416 116.577 81.816V81C116.577 77.448 117.801 75.6 120.201 75.6C122.577 75.6 123.777 77.544 123.777 81V81.768C123.777 85.368 122.673 87.216 120.249 87.216ZM120.153 90.264C124.785 90.264 127.641 87 127.641 81.744V80.952C127.641 75.624 124.593 72.6 120.177 72.6C115.761 72.6 112.689 75.744 112.689 81.024V81.84C112.689 87.096 115.593 90.264 120.153 90.264ZM137.359 87.216C134.959 87.216 133.687 85.416 133.687 81.816V81C133.687 77.448 134.911 75.6 137.311 75.6C139.687 75.6 140.887 77.544 140.887 81V81.768C140.887 85.368 139.783 87.216 137.359 87.216ZM137.263 90.264C141.895 90.264 144.751 87 144.751 81.744V80.952C144.751 75.624 141.703 72.6 137.287 72.6C132.871 72.6 129.799 75.744 129.799 81.024V81.84C129.799 87.096 132.703 90.264 137.263 90.264ZM147.297 92.952L150.561 87.36L147.297 86.136L145.185 92.064L147.297 92.952ZM159.226 87.216C156.826 87.216 155.554 85.416 155.554 81.816V81C155.554 77.448 156.778 75.6 159.178 75.6C161.554 75.6 162.754 77.544 162.754 81V81.768C162.754 85.368 161.65 87.216 159.226 87.216ZM159.13 90.264C163.762 90.264 166.618 87 166.618 81.744V80.952C166.618 75.624 163.57 72.6 159.154 72.6C154.738 72.6 151.666 75.744 151.666 81.024V81.84C151.666 87.096 154.57 90.264 159.13 90.264ZM176.335 87.216C173.935 87.216 172.663 85.416 172.663 81.816V81C172.663 77.448 173.887 75.6 176.287 75.6C178.663 75.6 179.863 77.544 179.863 81V81.768C179.863 85.368 178.759 87.216 176.335 87.216ZM176.239 90.264C180.871 90.264 183.727 87 183.727 81.744V80.952C183.727 75.624 180.679 72.6 176.263 72.6C171.847 72.6 168.775 75.744 168.775 81.024V81.84C168.775 87.096 171.679 90.264 176.239 90.264ZM193.445 87.216C191.045 87.216 189.773 85.416 189.773 81.816V81C189.773 77.448 190.997 75.6 193.397 75.6C195.773 75.6 196.973 77.544 196.973 81V81.768C196.973 85.368 195.869 87.216 193.445 87.216ZM193.349 90.264C197.981 90.264 200.837 87 200.837 81.744V80.952C200.837 75.624 197.789 72.6 193.373 72.6C188.957 72.6 185.885 75.744 185.885 81.024V81.84C185.885 87.096 188.789 90.264 193.349 90.264Z" fill="#171725"/>
<path d="M27 82.488H45.192V83.688H27V82.488Z" fill="#171725"/>
<path d="M215.153 34.5555C215.204 34.6592 215.237 34.7702 215.252 34.8843L215.531 39.0243L215.669 41.1051C215.67 41.3191 215.704 41.5317 215.769 41.736C215.936 42.1326 216.337 42.3846 216.774 42.367L223.431 41.9315C223.72 41.9268 223.998 42.0346 224.205 42.2313C224.378 42.3952 224.489 42.6096 224.525 42.8402L224.536 42.9802C224.261 46.7949 221.459 49.9767 217.652 50.798C213.846 51.6193 209.942 49.8843 208.061 46.5349C207.518 45.5618 207.18 44.4923 207.064 43.389C207.016 43.0624 206.995 42.7325 207.001 42.4025C206.995 38.3127 209.907 34.777 213.984 33.9246C214.475 33.8482 214.956 34.1079 215.153 34.5555Z" fill="#75759E"/>
<path opacity="0.4" d="M217.87 31.0008C222.43 31.1168 226.262 34.3958 227 38.8123L226.993 38.8449L226.973 38.8923L226.976 39.0224C226.965 39.1947 226.899 39.3605 226.784 39.4945C226.665 39.634 226.501 39.729 226.322 39.7659L226.212 39.7809L218.531 40.2786C218.276 40.3038 218.021 40.2214 217.831 40.052C217.673 39.9107 217.572 39.7201 217.543 39.5147L217.028 31.8451C217.019 31.8191 217.019 31.791 217.028 31.7651C217.035 31.5537 217.128 31.3538 217.286 31.2102C217.444 31.0666 217.655 30.9912 217.87 31.0008Z" fill="#75759E"/>
<rect x="276" y="1" width="260" height="122" rx="20" fill="white" stroke="#E2E2EA"/>
<path d="M305.318 46H306.536V36.984H309.448V35.99H302.406V36.984H305.318V46ZM313.023 45.16C311.539 45.16 310.629 44.068 310.629 42.402V42.29C310.629 40.61 311.553 39.518 313.023 39.518C314.479 39.518 315.417 40.61 315.417 42.304V42.402C315.417 44.054 314.493 45.16 313.023 45.16ZM313.009 46.126C315.095 46.126 316.621 44.6 316.621 42.388V42.276C316.621 40.078 315.095 38.552 313.023 38.552C310.951 38.552 309.425 40.092 309.425 42.29V42.402C309.425 44.544 310.923 46.126 313.009 46.126ZM320.646 46.098C321.122 46.098 321.402 46.028 321.64 45.944V44.964C321.388 45.062 321.108 45.118 320.744 45.118C320.156 45.118 319.834 44.768 319.834 44.054V39.658H321.542V38.678H319.834V37.012H318.672V38.678H317.622V39.658H318.672V44.166C318.672 45.314 319.316 46.098 320.646 46.098ZM325.299 46.126C326.377 46.126 327.035 45.762 327.581 45.076V46H328.743V41.17C328.743 39.126 327.469 38.552 326.069 38.552C324.655 38.552 323.325 39.168 323.171 40.834H324.333C324.445 39.938 325.005 39.518 326.013 39.518C327.133 39.518 327.581 40.008 327.581 41.17V41.702H326.531C324.655 41.702 322.863 42.276 322.863 43.97C322.863 45.468 323.941 46.126 325.299 46.126ZM325.411 45.202C324.389 45.202 324.025 44.726 324.025 43.97C324.025 42.892 325.103 42.528 326.573 42.528H327.581V43.438C327.581 44.572 326.643 45.202 325.411 45.202ZM331.054 46H332.23V35.178H331.054V46ZM338.341 46H339.517V35.178H338.341V46ZM344.947 45.16C343.463 45.16 342.553 44.068 342.553 42.402V42.29C342.553 40.61 343.477 39.518 344.947 39.518C346.403 39.518 347.341 40.61 347.341 42.304V42.402C347.341 44.054 346.417 45.16 344.947 45.16ZM344.933 46.126C347.019 46.126 348.545 44.6 348.545 42.388V42.276C348.545 40.078 347.019 38.552 344.947 38.552C342.875 38.552 341.349 40.092 341.349 42.29V42.402C341.349 44.544 342.847 46.126 344.933 46.126ZM352.178 46.126C353.256 46.126 353.914 45.762 354.46 45.076V46H355.622V41.17C355.622 39.126 354.348 38.552 352.948 38.552C351.534 38.552 350.204 39.168 350.05 40.834H351.212C351.324 39.938 351.884 39.518 352.892 39.518C354.012 39.518 354.46 40.008 354.46 41.17V41.702H353.41C351.534 41.702 349.742 42.276 349.742 43.97C349.742 45.468 350.82 46.126 352.178 46.126ZM352.29 45.202C351.268 45.202 350.904 44.726 350.904 43.97C350.904 42.892 351.982 42.528 353.452 42.528H354.46V43.438C354.46 44.572 353.522 45.202 352.29 45.202ZM357.905 46H359.067V41.562C359.067 40.246 360.033 39.56 361.111 39.56C362.287 39.56 362.833 40.134 362.833 41.422V46H363.995V41.506C363.995 39.378 362.931 38.552 361.419 38.552C360.215 38.552 359.403 39.154 359.067 39.84V38.678H357.905V46ZM369.977 46H371.139V41.982C371.139 40.176 372.077 39.714 373.547 39.644V38.552C372.231 38.594 371.601 39.168 371.139 39.994V38.678H369.977V46ZM378.031 46.126C379.683 46.126 380.901 45.356 381.153 43.886H379.991C379.837 44.74 379.179 45.16 378.045 45.16C376.547 45.16 375.749 44.236 375.693 42.57H381.209V42.192C381.209 39.574 379.613 38.552 377.919 38.552C375.903 38.552 374.489 40.092 374.489 42.304V42.416C374.489 44.67 375.959 46.126 378.031 46.126ZM375.735 41.632C375.931 40.33 376.729 39.518 377.919 39.518C379.123 39.518 379.907 40.12 380.019 41.632H375.735ZM382.992 48.548H384.154V44.796C384.574 45.524 385.428 46.126 386.632 46.126C388.648 46.126 389.964 44.586 389.964 42.346V42.234C389.964 39.952 388.55 38.552 386.632 38.552C385.568 38.552 384.574 39.196 384.154 39.91V38.678H382.992V48.548ZM386.52 45.16C385.092 45.16 384.112 44.278 384.112 42.402V42.29C384.112 40.414 385.148 39.518 386.506 39.518C387.738 39.518 388.76 40.442 388.76 42.29V42.402C388.76 44.18 387.976 45.16 386.52 45.16ZM393.604 46.126C394.682 46.126 395.34 45.762 395.886 45.076V46H397.048V41.17C397.048 39.126 395.774 38.552 394.374 38.552C392.96 38.552 391.63 39.168 391.476 40.834H392.638C392.75 39.938 393.31 39.518 394.318 39.518C395.438 39.518 395.886 40.008 395.886 41.17V41.702H394.836C392.96 41.702 391.168 42.276 391.168 43.97C391.168 45.468 392.246 46.126 393.604 46.126ZM393.716 45.202C392.694 45.202 392.33 44.726 392.33 43.97C392.33 42.892 393.408 42.528 394.878 42.528H395.886V43.438C395.886 44.572 394.948 45.202 393.716 45.202ZM399.783 48.548H400.959L405.005 38.678H403.815L401.785 43.928L399.545 38.678H398.299L401.169 45.244L399.783 48.548ZM409.326 46.126C410.978 46.126 412.196 45.356 412.448 43.886H411.286C411.132 44.74 410.474 45.16 409.34 45.16C407.842 45.16 407.044 44.236 406.988 42.57H412.504V42.192C412.504 39.574 410.908 38.552 409.214 38.552C407.198 38.552 405.784 40.092 405.784 42.304V42.416C405.784 44.67 407.254 46.126 409.326 46.126ZM407.03 41.632C407.226 40.33 408.024 39.518 409.214 39.518C410.418 39.518 411.202 40.12 411.314 41.632H407.03ZM417.045 46.126C418.109 46.126 419.131 45.454 419.551 44.74V46H420.713V35.178H419.551V39.854C419.131 39.14 418.375 38.552 417.157 38.552C415.141 38.552 413.741 40.134 413.741 42.374V42.486C413.741 44.768 415.127 46.126 417.045 46.126ZM417.171 45.16C415.939 45.16 414.945 44.278 414.945 42.43V42.318C414.945 40.54 415.813 39.518 417.269 39.518C418.697 39.518 419.593 40.4 419.593 42.276V42.388C419.593 44.264 418.529 45.16 417.171 45.16Z" fill="#75759E"/>
<path d="M303.848 90H307.304V77.784L314.456 90H318.344V72.84H314.888V84.144L308.36 72.84H303.848V90ZM327.628 90.24C332.236 90.24 334.804 87.096 334.804 81.48V80.712C334.804 75.768 332.523 72.576 327.796 72.576C323.692 72.576 321.148 74.976 321.148 78.528C321.148 82.008 323.572 84.072 326.884 84.072C328.948 84.072 330.196 83.232 330.988 81.984C330.916 85.488 329.788 87.288 327.508 87.288C325.876 87.288 325.18 86.544 324.94 85.368H321.316C321.7 88.464 323.908 90.24 327.628 90.24ZM327.748 81.48C326.02 81.48 324.916 80.232 324.916 78.432C324.916 76.632 326.044 75.384 327.748 75.384C329.5 75.384 330.676 76.608 330.676 78.6C330.676 80.28 329.5 81.48 327.748 81.48ZM344.554 87.216C342.154 87.216 340.882 85.416 340.882 81.816V81C340.882 77.448 342.106 75.6 344.506 75.6C346.882 75.6 348.082 77.544 348.082 81V81.768C348.082 85.368 346.978 87.216 344.554 87.216ZM344.458 90.264C349.09 90.264 351.946 87 351.946 81.744V80.952C351.946 75.624 348.898 72.6 344.482 72.6C340.066 72.6 336.994 75.744 336.994 81.024V81.84C336.994 87.096 339.898 90.264 344.458 90.264ZM354.492 92.952L357.756 87.36L354.492 86.136L352.38 92.064L354.492 92.952ZM366.421 87.216C364.021 87.216 362.749 85.416 362.749 81.816V81C362.749 77.448 363.973 75.6 366.373 75.6C368.749 75.6 369.949 77.544 369.949 81V81.768C369.949 85.368 368.845 87.216 366.421 87.216ZM366.325 90.264C370.957 90.264 373.813 87 373.813 81.744V80.952C373.813 75.624 370.765 72.6 366.349 72.6C361.933 72.6 358.861 75.744 358.861 81.024V81.84C358.861 87.096 361.765 90.264 366.325 90.264ZM383.531 87.216C381.131 87.216 379.859 85.416 379.859 81.816V81C379.859 77.448 381.083 75.6 383.483 75.6C385.859 75.6 387.059 77.544 387.059 81V81.768C387.059 85.368 385.955 87.216 383.531 87.216ZM383.435 90.264C388.067 90.264 390.923 87 390.923 81.744V80.952C390.923 75.624 387.875 72.6 383.459 72.6C379.043 72.6 375.971 75.744 375.971 81.024V81.84C375.971 87.096 378.875 90.264 383.435 90.264ZM400.64 87.216C398.24 87.216 396.968 85.416 396.968 81.816V81C396.968 77.448 398.192 75.6 400.592 75.6C402.968 75.6 404.168 77.544 404.168 81V81.768C404.168 85.368 403.064 87.216 400.64 87.216ZM400.544 90.264C405.176 90.264 408.032 87 408.032 81.744V80.952C408.032 75.624 404.984 72.6 400.568 72.6C396.152 72.6 393.08 75.744 393.08 81.024V81.84C393.08 87.096 395.984 90.264 400.544 90.264ZM410.578 92.952L413.842 87.36L410.578 86.136L408.466 92.064L410.578 92.952ZM422.507 87.216C420.107 87.216 418.835 85.416 418.835 81.816V81C418.835 77.448 420.059 75.6 422.459 75.6C424.835 75.6 426.035 77.544 426.035 81V81.768C426.035 85.368 424.931 87.216 422.507 87.216ZM422.411 90.264C427.043 90.264 429.899 87 429.899 81.744V80.952C429.899 75.624 426.851 72.6 422.435 72.6C418.019 72.6 414.947 75.744 414.947 81.024V81.84C414.947 87.096 417.851 90.264 422.411 90.264ZM439.617 87.216C437.217 87.216 435.945 85.416 435.945 81.816V81C435.945 77.448 437.169 75.6 439.569 75.6C441.945 75.6 443.145 77.544 443.145 81V81.768C443.145 85.368 442.041 87.216 439.617 87.216ZM439.521 90.264C444.153 90.264 447.009 87 447.009 81.744V80.952C447.009 75.624 443.961 72.6 439.545 72.6C435.129 72.6 432.057 75.744 432.057 81.024V81.84C432.057 87.096 434.961 90.264 439.521 90.264ZM456.726 87.216C454.326 87.216 453.054 85.416 453.054 81.816V81C453.054 77.448 454.278 75.6 456.678 75.6C459.054 75.6 460.254 77.544 460.254 81V81.768C460.254 85.368 459.15 87.216 456.726 87.216ZM456.63 90.264C461.262 90.264 464.118 87 464.118 81.744V80.952C464.118 75.624 461.07 72.6 456.654 72.6C452.238 72.6 449.166 75.744 449.166 81.024V81.84C449.166 87.096 452.07 90.264 456.63 90.264Z" fill="#171725"/>
<path d="M302 82.488H320.192V83.688H302V82.488Z" fill="#171725"/>
<path d="M490.153 34.5555C490.204 34.6592 490.237 34.7702 490.252 34.8843L490.531 39.0243L490.669 41.1051C490.67 41.3191 490.704 41.5317 490.769 41.736C490.936 42.1326 491.337 42.3846 491.774 42.367L498.431 41.9315C498.72 41.9268 498.998 42.0346 499.205 42.2313C499.378 42.3952 499.489 42.6096 499.525 42.8402L499.536 42.9802C499.261 46.7949 496.459 49.9767 492.652 50.798C488.846 51.6193 484.942 49.8843 483.061 46.5349C482.518 45.5618 482.18 44.4923 482.064 43.389C482.016 43.0624 481.995 42.7325 482.001 42.4025C481.995 38.3127 484.907 34.777 488.984 33.9246C489.475 33.8482 489.956 34.1079 490.153 34.5555Z" fill="#75759E"/>
<path opacity="0.4" d="M492.87 31.0008C497.43 31.1168 501.262 34.3958 502 38.8123L501.993 38.8449L501.973 38.8923L501.976 39.0224C501.965 39.1947 501.899 39.3605 501.784 39.4945C501.665 39.634 501.501 39.729 501.322 39.7659L501.212 39.7809L493.531 40.2786C493.276 40.3038 493.021 40.2214 492.831 40.052C492.673 39.9107 492.572 39.7201 492.543 39.5147L492.028 31.8451C492.019 31.8191 492.019 31.791 492.028 31.7651C492.035 31.5537 492.128 31.3538 492.286 31.2102C492.444 31.0666 492.655 30.9912 492.87 31.0008Z" fill="#75759E"/>
<rect x="551" y="1" width="260" height="122" rx="20" fill="white" stroke="#E2E2EA"/>
<path d="M578.26 46H579.478V41.646H581.018L584 46H585.358L582.292 41.562C583.664 41.296 584.77 40.484 584.77 38.832V38.776C584.77 36.774 583.188 35.99 581.27 35.99H578.26V46ZM579.478 40.68V36.97H581.354C582.712 36.97 583.552 37.418 583.552 38.776V38.832C583.552 40.064 582.782 40.68 581.354 40.68H579.478ZM589.758 46.126C591.41 46.126 592.628 45.356 592.88 43.886H591.718C591.564 44.74 590.906 45.16 589.772 45.16C588.274 45.16 587.476 44.236 587.42 42.57H592.936V42.192C592.936 39.574 591.34 38.552 589.646 38.552C587.63 38.552 586.216 40.092 586.216 42.304V42.416C586.216 44.67 587.686 46.126 589.758 46.126ZM587.462 41.632C587.658 40.33 588.456 39.518 589.646 39.518C590.85 39.518 591.634 40.12 591.746 41.632H587.462ZM594.719 48.548H595.881V44.796C596.301 45.524 597.155 46.126 598.359 46.126C600.375 46.126 601.691 44.586 601.691 42.346V42.234C601.691 39.952 600.277 38.552 598.359 38.552C597.295 38.552 596.301 39.196 595.881 39.91V38.678H594.719V48.548ZM598.247 45.16C596.819 45.16 595.839 44.278 595.839 42.402V42.29C595.839 40.414 596.875 39.518 598.233 39.518C599.465 39.518 600.487 40.442 600.487 42.29V42.402C600.487 44.18 599.703 45.16 598.247 45.16ZM605.33 46.126C606.408 46.126 607.066 45.762 607.612 45.076V46H608.774V41.17C608.774 39.126 607.5 38.552 606.1 38.552C604.686 38.552 603.356 39.168 603.202 40.834H604.364C604.476 39.938 605.036 39.518 606.044 39.518C607.164 39.518 607.612 40.008 607.612 41.17V41.702H606.562C604.686 41.702 602.894 42.276 602.894 43.97C602.894 45.468 603.972 46.126 605.33 46.126ZM605.442 45.202C604.42 45.202 604.056 44.726 604.056 43.97C604.056 42.892 605.134 42.528 606.604 42.528H607.612V43.438C607.612 44.572 606.674 45.202 605.442 45.202ZM611.51 48.548H612.686L616.732 38.678H615.542L613.512 43.928L611.272 38.678H610.026L612.896 45.244L611.51 48.548ZM618.262 46H619.424V41.52C619.424 40.204 620.404 39.56 621.356 39.56C622.364 39.56 622.91 40.092 622.91 41.38V46H624.072V41.52C624.072 40.204 625.052 39.56 626.004 39.56C627.012 39.56 627.558 40.092 627.558 41.38V46H628.72V41.464C628.72 39.336 627.572 38.552 626.256 38.552C625.346 38.552 624.254 38.972 623.75 39.924C623.372 38.944 622.546 38.552 621.608 38.552C620.558 38.552 619.76 39.112 619.424 39.798V38.678H618.262V46ZM634 46.126C635.652 46.126 636.87 45.356 637.122 43.886H635.96C635.806 44.74 635.148 45.16 634.014 45.16C632.516 45.16 631.718 44.236 631.662 42.57H637.178V42.192C637.178 39.574 635.582 38.552 633.888 38.552C631.872 38.552 630.458 40.092 630.458 42.304V42.416C630.458 44.67 631.928 46.126 634 46.126ZM631.704 41.632C631.9 40.33 632.698 39.518 633.888 39.518C635.092 39.518 635.876 40.12 635.988 41.632H631.704ZM638.961 46H640.123V41.562C640.123 40.246 641.089 39.56 642.167 39.56C643.343 39.56 643.889 40.134 643.889 41.422V46H645.051V41.506C645.051 39.378 643.987 38.552 642.475 38.552C641.271 38.552 640.459 39.154 640.123 39.84V38.678H638.961V46ZM649.554 46.098C650.03 46.098 650.31 46.028 650.548 45.944V44.964C650.296 45.062 650.016 45.118 649.652 45.118C649.064 45.118 648.742 44.768 648.742 44.054V39.658H650.45V38.678H648.742V37.012H647.58V38.678H646.53V39.658H647.58V44.166C647.58 45.314 648.224 46.098 649.554 46.098ZM657.312 45.006V36.97H658.67C661.428 36.97 662.548 38.594 662.548 40.904V41.016C662.548 43.466 661.26 45.006 658.684 45.006H657.312ZM656.094 46H658.712C662.212 46 663.808 43.802 663.808 41.03V40.904C663.808 38.118 662.184 35.99 658.74 35.99H656.094V46ZM668.236 46.126C669.412 46.126 670.224 45.524 670.56 44.838V46H671.722V38.678H670.56V43.116C670.56 44.432 669.58 45.118 668.544 45.118C667.396 45.118 666.85 44.544 666.85 43.256V38.678H665.688V43.312C665.688 45.328 666.78 46.126 668.236 46.126ZM677.067 46.126C678.719 46.126 679.937 45.356 680.189 43.886H679.027C678.873 44.74 678.215 45.16 677.081 45.16C675.583 45.16 674.785 44.236 674.729 42.57H680.245V42.192C680.245 39.574 678.649 38.552 676.955 38.552C674.939 38.552 673.525 40.092 673.525 42.304V42.416C673.525 44.67 674.995 46.126 677.067 46.126ZM674.771 41.632C674.967 40.33 675.765 39.518 676.955 39.518C678.159 39.518 678.943 40.12 679.055 41.632H674.771Z" fill="#75759E"/>
<path d="M578.848 90H582.304V77.784L589.456 90H593.344V72.84H589.888V84.144L583.36 72.84H578.848V90ZM599.436 90H603.324V72.84H599.916L595.956 75.648V78.96L599.436 76.68V90ZM614.163 87.216C611.763 87.216 610.491 85.416 610.491 81.816V81C610.491 77.448 611.715 75.6 614.115 75.6C616.491 75.6 617.691 77.544 617.691 81V81.768C617.691 85.368 616.587 87.216 614.163 87.216ZM614.067 90.264C618.699 90.264 621.555 87 621.555 81.744V80.952C621.555 75.624 618.507 72.6 614.091 72.6C609.675 72.6 606.603 75.744 606.603 81.024V81.84C606.603 87.096 609.507 90.264 614.067 90.264ZM624.102 92.952L627.366 87.36L624.102 86.136L621.99 92.064L624.102 92.952ZM636.031 87.216C633.631 87.216 632.359 85.416 632.359 81.816V81C632.359 77.448 633.583 75.6 635.983 75.6C638.359 75.6 639.559 77.544 639.559 81V81.768C639.559 85.368 638.455 87.216 636.031 87.216ZM635.935 90.264C640.567 90.264 643.423 87 643.423 81.744V80.952C643.423 75.624 640.375 72.6 635.959 72.6C631.543 72.6 628.471 75.744 628.471 81.024V81.84C628.471 87.096 631.375 90.264 635.935 90.264ZM653.14 87.216C650.74 87.216 649.468 85.416 649.468 81.816V81C649.468 77.448 650.692 75.6 653.092 75.6C655.468 75.6 656.668 77.544 656.668 81V81.768C656.668 85.368 655.564 87.216 653.14 87.216ZM653.044 90.264C657.676 90.264 660.532 87 660.532 81.744V80.952C660.532 75.624 657.484 72.6 653.068 72.6C648.652 72.6 645.58 75.744 645.58 81.024V81.84C645.58 87.096 648.484 90.264 653.044 90.264ZM670.249 87.216C667.849 87.216 666.577 85.416 666.577 81.816V81C666.577 77.448 667.801 75.6 670.201 75.6C672.577 75.6 673.777 77.544 673.777 81V81.768C673.777 85.368 672.673 87.216 670.249 87.216ZM670.153 90.264C674.785 90.264 677.641 87 677.641 81.744V80.952C677.641 75.624 674.593 72.6 670.177 72.6C665.761 72.6 662.689 75.744 662.689 81.024V81.84C662.689 87.096 665.593 90.264 670.153 90.264ZM680.187 92.952L683.451 87.36L680.187 86.136L678.075 92.064L680.187 92.952ZM692.117 87.216C689.717 87.216 688.445 85.416 688.445 81.816V81C688.445 77.448 689.669 75.6 692.069 75.6C694.445 75.6 695.645 77.544 695.645 81V81.768C695.645 85.368 694.541 87.216 692.117 87.216ZM692.021 90.264C696.653 90.264 699.509 87 699.509 81.744V80.952C699.509 75.624 696.461 72.6 692.045 72.6C687.629 72.6 684.557 75.744 684.557 81.024V81.84C684.557 87.096 687.461 90.264 692.021 90.264ZM709.226 87.216C706.826 87.216 705.554 85.416 705.554 81.816V81C705.554 77.448 706.778 75.6 709.178 75.6C711.554 75.6 712.754 77.544 712.754 81V81.768C712.754 85.368 711.65 87.216 709.226 87.216ZM709.13 90.264C713.762 90.264 716.618 87 716.618 81.744V80.952C716.618 75.624 713.57 72.6 709.154 72.6C704.738 72.6 701.666 75.744 701.666 81.024V81.84C701.666 87.096 704.57 90.264 709.13 90.264ZM726.335 87.216C723.935 87.216 722.663 85.416 722.663 81.816V81C722.663 77.448 723.887 75.6 726.287 75.6C728.663 75.6 729.863 77.544 729.863 81V81.768C729.863 85.368 728.759 87.216 726.335 87.216ZM726.239 90.264C730.871 90.264 733.727 87 733.727 81.744V80.952C733.727 75.624 730.679 72.6 726.263 72.6C721.847 72.6 718.775 75.744 718.775 81.024V81.84C718.775 87.096 721.679 90.264 726.239 90.264Z" fill="#171725"/>
<path d="M577 82.488H595.192V83.688H577V82.488Z" fill="#171725"/>
<path d="M765.153 34.5555C765.204 34.6592 765.237 34.7702 765.252 34.8843L765.531 39.0243L765.669 41.1051C765.67 41.3191 765.704 41.5317 765.769 41.736C765.936 42.1326 766.337 42.3846 766.774 42.367L773.431 41.9315C773.72 41.9268 773.998 42.0346 774.205 42.2313C774.378 42.3952 774.489 42.6096 774.525 42.8402L774.536 42.9802C774.261 46.7949 771.459 49.9767 767.652 50.798C763.846 51.6193 759.942 49.8843 758.061 46.5349C757.518 45.5618 757.18 44.4923 757.064 43.389C757.016 43.0624 756.995 42.7325 757.001 42.4025C756.995 38.3127 759.907 34.777 763.984 33.9246C764.475 33.8482 764.956 34.1079 765.153 34.5555Z" fill="#75759E"/>
<path opacity="0.4" d="M767.87 31.0008C772.43 31.1168 776.262 34.3958 777 38.8123L776.993 38.8449L776.973 38.8923L776.976 39.0224C776.965 39.1947 776.899 39.3605 776.784 39.4945C776.665 39.634 776.501 39.729 776.322 39.7659L776.212 39.7809L768.531 40.2786C768.276 40.3038 768.021 40.2214 767.831 40.052C767.673 39.9107 767.572 39.7201 767.543 39.5147L767.028 31.8451C767.019 31.8191 767.019 31.791 767.028 31.7651C767.035 31.5537 767.128 31.3538 767.286 31.2102C767.444 31.0666 767.655 30.9912 767.87 31.0008Z" fill="#75759E"/>
<rect x="826" y="1" width="260" height="122" rx="20" fill="white" stroke="#E2E2EA"/>
<path d="M853.26 46H854.478V41.926H856.102C858.006 41.926 859.602 41.1 859.602 38.972V38.916C859.602 36.83 858.02 35.99 856.102 35.99H853.26V46ZM854.478 40.96V36.97H856.186C857.544 36.97 858.384 37.502 858.384 38.916V38.972C858.384 40.26 857.614 40.96 856.186 40.96H854.478ZM864.102 46.126C865.754 46.126 866.972 45.356 867.224 43.886H866.062C865.908 44.74 865.25 45.16 864.116 45.16C862.618 45.16 861.82 44.236 861.764 42.57H867.28V42.192C867.28 39.574 865.684 38.552 863.99 38.552C861.974 38.552 860.56 40.092 860.56 42.304V42.416C860.56 44.67 862.03 46.126 864.102 46.126ZM861.806 41.632C862.002 40.33 862.8 39.518 863.99 39.518C865.194 39.518 865.978 40.12 866.09 41.632H861.806ZM869.063 46H870.225V41.562C870.225 40.246 871.191 39.56 872.269 39.56C873.445 39.56 873.991 40.134 873.991 41.422V46H875.153V41.506C875.153 39.378 874.089 38.552 872.577 38.552C871.373 38.552 870.561 39.154 870.225 39.84V38.678H869.063V46ZM880.188 46.126C881.252 46.126 882.274 45.454 882.694 44.74V46H883.856V35.178H882.694V39.854C882.274 39.14 881.518 38.552 880.3 38.552C878.284 38.552 876.884 40.134 876.884 42.374V42.486C876.884 44.768 878.27 46.126 880.188 46.126ZM880.314 45.16C879.082 45.16 878.088 44.278 878.088 42.43V42.318C878.088 40.54 878.956 39.518 880.412 39.518C881.84 39.518 882.736 40.4 882.736 42.276V42.388C882.736 44.264 881.672 45.16 880.314 45.16ZM886.235 46H887.397V38.678H886.235V46ZM886.795 37.152C887.215 37.152 887.565 36.802 887.565 36.382C887.565 35.962 887.215 35.612 886.795 35.612C886.375 35.612 886.025 35.962 886.025 36.382C886.025 36.802 886.375 37.152 886.795 37.152ZM889.776 46H890.938V41.562C890.938 40.246 891.904 39.56 892.982 39.56C894.158 39.56 894.704 40.134 894.704 41.422V46H895.866V41.506C895.866 39.378 894.802 38.552 893.29 38.552C892.086 38.552 891.274 39.154 890.938 39.84V38.678H889.776V46ZM901.069 48.674C903.113 48.674 904.555 47.638 904.569 45.51V38.678H903.407V39.854C902.987 39.14 902.231 38.552 901.013 38.552C898.997 38.552 897.597 40.204 897.597 42.192V42.29C897.597 44.306 899.011 45.762 900.929 45.762C901.993 45.762 902.987 45.09 903.407 44.376V45.44C903.407 47.008 902.497 47.694 901.055 47.694C899.809 47.694 899.109 47.26 898.941 46.42H897.751C897.947 47.652 898.899 48.674 901.069 48.674ZM901.055 44.796C899.823 44.796 898.801 43.844 898.801 42.248V42.136C898.801 40.596 899.669 39.518 901.125 39.518C902.553 39.518 903.449 40.47 903.449 42.108V42.206C903.449 43.844 902.413 44.796 901.055 44.796ZM910.653 46H911.829V35.178H910.653V46ZM917.259 45.16C915.775 45.16 914.865 44.068 914.865 42.402V42.29C914.865 40.61 915.789 39.518 917.259 39.518C918.715 39.518 919.653 40.61 919.653 42.304V42.402C919.653 44.054 918.729 45.16 917.259 45.16ZM917.245 46.126C919.331 46.126 920.857 44.6 920.857 42.388V42.276C920.857 40.078 919.331 38.552 917.259 38.552C915.187 38.552 913.661 40.092 913.661 42.29V42.402C913.661 44.544 915.159 46.126 917.245 46.126ZM924.49 46.126C925.568 46.126 926.226 45.762 926.772 45.076V46H927.934V41.17C927.934 39.126 926.66 38.552 925.26 38.552C923.846 38.552 922.516 39.168 922.362 40.834H923.524C923.636 39.938 924.196 39.518 925.204 39.518C926.324 39.518 926.772 40.008 926.772 41.17V41.702H925.722C923.846 41.702 922.054 42.276 922.054 43.97C922.054 45.468 923.132 46.126 924.49 46.126ZM924.602 45.202C923.58 45.202 923.216 44.726 923.216 43.97C923.216 42.892 924.294 42.528 925.764 42.528H926.772V43.438C926.772 44.572 925.834 45.202 924.602 45.202ZM930.217 46H931.379V41.562C931.379 40.246 932.345 39.56 933.423 39.56C934.599 39.56 935.145 40.134 935.145 41.422V46H936.307V41.506C936.307 39.378 935.243 38.552 933.731 38.552C932.527 38.552 931.715 39.154 931.379 39.84V38.678H930.217V46ZM940.852 46.126C942.63 46.126 943.54 45.23 943.54 43.9C943.54 42.346 942.476 42.01 940.964 41.73C939.62 41.492 939.256 41.226 939.256 40.568C939.256 39.938 939.802 39.518 940.642 39.518C941.566 39.518 942.014 39.868 942.182 40.666H943.302C943.106 39.084 941.972 38.552 940.656 38.552C939.508 38.552 938.178 39.252 938.178 40.61C938.178 41.884 938.822 42.416 940.726 42.766C941.86 42.976 942.434 43.228 942.434 43.998C942.434 44.782 941.944 45.16 940.838 45.16C939.662 45.16 939.2 44.614 939.116 43.746H937.982C938.052 45.244 939.102 46.126 940.852 46.126Z" fill="#75759E"/>
<path d="M852.288 90H865.248V87.048H858.576L861.816 83.88C863.808 81.96 865.128 80.088 865.128 77.808C865.128 74.712 862.968 72.6 859.176 72.6C855.336 72.6 852.936 74.76 852.744 78.72H856.272C856.536 76.464 857.496 75.576 859.008 75.576C860.496 75.576 861.288 76.488 861.288 77.904C861.288 79.464 860.232 80.976 858.576 82.728L852.288 89.376V90ZM874.749 87.216C872.349 87.216 871.077 85.416 871.077 81.816V81C871.077 77.448 872.301 75.6 874.701 75.6C877.077 75.6 878.277 77.544 878.277 81V81.768C878.277 85.368 877.173 87.216 874.749 87.216ZM874.653 90.264C879.285 90.264 882.141 87 882.141 81.744V80.952C882.141 75.624 879.093 72.6 874.677 72.6C870.261 72.6 867.189 75.744 867.189 81.024V81.84C867.189 87.096 870.093 90.264 874.653 90.264ZM891.859 87.216C889.459 87.216 888.187 85.416 888.187 81.816V81C888.187 77.448 889.411 75.6 891.811 75.6C894.187 75.6 895.387 77.544 895.387 81V81.768C895.387 85.368 894.283 87.216 891.859 87.216ZM891.763 90.264C896.395 90.264 899.251 87 899.251 81.744V80.952C899.251 75.624 896.203 72.6 891.787 72.6C887.371 72.6 884.299 75.744 884.299 81.024V81.84C884.299 87.096 887.203 90.264 891.763 90.264Z" fill="#171725"/>
<path d="M1040.15 34.5555C1040.2 34.6592 1040.24 34.7702 1040.25 34.8843L1040.53 39.0243L1040.67 41.1051C1040.67 41.3191 1040.7 41.5317 1040.77 41.736C1040.94 42.1326 1041.34 42.3846 1041.77 42.367L1048.43 41.9315C1048.72 41.9268 1049 42.0346 1049.21 42.2313C1049.38 42.3952 1049.49 42.6096 1049.52 42.8402L1049.54 42.9802C1049.26 46.7949 1046.46 49.9767 1042.65 50.798C1038.85 51.6193 1034.94 49.8843 1033.06 46.5349C1032.52 45.5618 1032.18 44.4923 1032.06 43.389C1032.02 43.0624 1032 42.7325 1032 42.4025C1032 38.3127 1034.91 34.777 1038.98 33.9246C1039.48 33.8482 1039.96 34.1079 1040.15 34.5555Z" fill="#75759E"/>
<path opacity="0.4" d="M1042.87 31.0008C1047.43 31.1168 1051.26 34.3958 1052 38.8123L1051.99 38.8449L1051.97 38.8923L1051.98 39.0224C1051.97 39.1947 1051.9 39.3605 1051.78 39.4945C1051.66 39.634 1051.5 39.729 1051.32 39.7659L1051.21 39.7809L1043.53 40.2786C1043.28 40.3038 1043.02 40.2214 1042.83 40.052C1042.67 39.9107 1042.57 39.7201 1042.54 39.5147L1042.03 31.8451C1042.02 31.8191 1042.02 31.791 1042.03 31.7651C1042.03 31.5537 1042.13 31.3538 1042.29 31.2102C1042.44 31.0666 1042.65 30.9912 1042.87 31.0008Z" fill="#75759E"/>
<rect x="1" y="139" width="260" height="122" rx="20" fill="white" stroke="#E2E2EA"/>
<path d="M27.504 184H28.652L29.618 181.116H33.748L34.728 184H35.932L32.544 173.99H30.948L27.504 184ZM31.69 174.998L33.426 180.15H29.954L31.69 174.998ZM37.6096 186.548H38.7716V182.796C39.1916 183.524 40.0456 184.126 41.2496 184.126C43.2656 184.126 44.5816 182.586 44.5816 180.346V180.234C44.5816 177.952 43.1676 176.552 41.2496 176.552C40.1856 176.552 39.1916 177.196 38.7716 177.91V176.678H37.6096V186.548ZM41.1376 183.16C39.7096 183.16 38.7296 182.278 38.7296 180.402V180.29C38.7296 178.414 39.7656 177.518 41.1236 177.518C42.3556 177.518 43.3776 178.442 43.3776 180.29V180.402C43.3776 182.18 42.5936 183.16 41.1376 183.16ZM46.3869 186.548H47.5489V182.796C47.9689 183.524 48.8229 184.126 50.0269 184.126C52.0429 184.126 53.3589 182.586 53.3589 180.346V180.234C53.3589 177.952 51.9449 176.552 50.0269 176.552C48.9629 176.552 47.9689 177.196 47.5489 177.91V176.678H46.3869V186.548ZM49.9149 183.16C48.4869 183.16 47.5069 182.278 47.5069 180.402V180.29C47.5069 178.414 48.5429 177.518 49.9009 177.518C51.1329 177.518 52.1549 178.442 52.1549 180.29V180.402C52.1549 182.18 51.3709 183.16 49.9149 183.16ZM55.1643 184H56.3263V179.982C56.3263 178.176 57.2643 177.714 58.7343 177.644V176.552C57.4183 176.594 56.7883 177.168 56.3263 177.994V176.678H55.1643V184ZM63.2749 183.16C61.7909 183.16 60.8809 182.068 60.8809 180.402V180.29C60.8809 178.61 61.8049 177.518 63.2749 177.518C64.7309 177.518 65.6689 178.61 65.6689 180.304V180.402C65.6689 182.054 64.7449 183.16 63.2749 183.16ZM63.2609 184.126C65.3469 184.126 66.8729 182.6 66.8729 180.388V180.276C66.8729 178.078 65.3469 176.552 63.2749 176.552C61.2029 176.552 59.6769 178.092 59.6769 180.29V180.402C59.6769 182.544 61.1749 184.126 63.2609 184.126ZM70.301 184H71.785L74.417 176.678H73.213L71.071 182.824L68.901 176.678H67.641L70.301 184ZM78.7365 184.126C80.3885 184.126 81.6065 183.356 81.8585 181.886H80.6965C80.5425 182.74 79.8845 183.16 78.7505 183.16C77.2525 183.16 76.4545 182.236 76.3985 180.57H81.9145V180.192C81.9145 177.574 80.3185 176.552 78.6245 176.552C76.6085 176.552 75.1945 178.092 75.1945 180.304V180.416C75.1945 182.67 76.6645 184.126 78.7365 184.126ZM76.4405 179.632C76.6365 178.33 77.4345 177.518 78.6245 177.518C79.8285 177.518 80.6125 178.12 80.7245 179.632H76.4405ZM86.4555 184.126C87.5195 184.126 88.5415 183.454 88.9615 182.74V184H90.1235V173.178H88.9615V177.854C88.5415 177.14 87.7855 176.552 86.5675 176.552C84.5515 176.552 83.1515 178.134 83.1515 180.374V180.486C83.1515 182.768 84.5375 184.126 86.4555 184.126ZM86.5815 183.16C85.3495 183.16 84.3555 182.278 84.3555 180.43V180.318C84.3555 178.54 85.2235 177.518 86.6795 177.518C88.1075 177.518 89.0035 178.4 89.0035 180.276V180.388C89.0035 182.264 87.9395 183.16 86.5815 183.16ZM96.2079 184H97.3839V173.178H96.2079V184ZM102.814 183.16C101.33 183.16 100.42 182.068 100.42 180.402V180.29C100.42 178.61 101.344 177.518 102.814 177.518C104.27 177.518 105.208 178.61 105.208 180.304V180.402C105.208 182.054 104.284 183.16 102.814 183.16ZM102.8 184.126C104.886 184.126 106.412 182.6 106.412 180.388V180.276C106.412 178.078 104.886 176.552 102.814 176.552C100.742 176.552 99.2159 178.092 99.2159 180.29V180.402C99.2159 182.544 100.714 184.126 102.8 184.126ZM110.045 184.126C111.123 184.126 111.781 183.762 112.327 183.076V184H113.489V179.17C113.489 177.126 112.215 176.552 110.815 176.552C109.401 176.552 108.071 177.168 107.917 178.834H109.079C109.191 177.938 109.751 177.518 110.759 177.518C111.879 177.518 112.327 178.008 112.327 179.17V179.702H111.277C109.401 179.702 107.609 180.276 107.609 181.97C107.609 183.468 108.687 184.126 110.045 184.126ZM110.157 183.202C109.135 183.202 108.771 182.726 108.771 181.97C108.771 180.892 109.849 180.528 111.319 180.528H112.327V181.438C112.327 182.572 111.389 183.202 110.157 183.202ZM115.772 184H116.934V179.562C116.934 178.246 117.9 177.56 118.978 177.56C120.154 177.56 120.7 178.134 120.7 179.422V184H121.862V179.506C121.862 177.378 120.798 176.552 119.286 176.552C118.082 176.552 117.27 177.154 116.934 177.84V176.678H115.772V184ZM126.407 184.126C128.185 184.126 129.095 183.23 129.095 181.9C129.095 180.346 128.031 180.01 126.519 179.73C125.175 179.492 124.811 179.226 124.811 178.568C124.811 177.938 125.357 177.518 126.197 177.518C127.121 177.518 127.569 177.868 127.737 178.666H128.857C128.661 177.084 127.527 176.552 126.211 176.552C125.063 176.552 123.733 177.252 123.733 178.61C123.733 179.884 124.377 180.416 126.281 180.766C127.415 180.976 127.989 181.228 127.989 181.998C127.989 182.782 127.499 183.16 126.393 183.16C125.217 183.16 124.755 182.614 124.671 181.746H123.537C123.607 183.244 124.657 184.126 126.407 184.126Z" fill="#75759E"/>
<path d="M31.248 228H35.136V210.84H31.728L27.768 213.648V216.96L31.248 214.68V228ZM39.6484 230.952L42.9124 225.36L39.6484 224.136L37.5364 230.064L39.6484 230.952ZM44.0693 228H57.0293V225.048H50.3573L53.5973 221.88C55.5893 219.96 56.9093 218.088 56.9093 215.808C56.9093 212.712 54.7493 210.6 50.9573 210.6C47.1173 210.6 44.7173 212.76 44.5253 216.72H48.0533C48.3173 214.464 49.2773 213.576 50.7893 213.576C52.2773 213.576 53.0693 214.488 53.0693 215.904C53.0693 217.464 52.0133 218.976 50.3573 220.728L44.0693 227.376V228ZM66.5306 225.216C64.1306 225.216 62.8586 223.416 62.8586 219.816V219C62.8586 215.448 64.0826 213.6 66.4826 213.6C68.8586 213.6 70.0586 215.544 70.0586 219V219.768C70.0586 223.368 68.9546 225.216 66.5306 225.216ZM66.4346 228.264C71.0666 228.264 73.9226 225 73.9226 219.744V218.952C73.9226 213.624 70.8746 210.6 66.4586 210.6C62.0426 210.6 58.9706 213.744 58.9706 219.024V219.84C58.9706 225.096 61.8746 228.264 66.4346 228.264ZM83.64 225.216C81.24 225.216 79.968 223.416 79.968 219.816V219C79.968 215.448 81.192 213.6 83.592 213.6C85.968 213.6 87.168 215.544 87.168 219V219.768C87.168 223.368 86.064 225.216 83.64 225.216ZM83.544 228.264C88.176 228.264 91.032 225 91.032 219.744V218.952C91.032 213.624 87.984 210.6 83.568 210.6C79.152 210.6 76.08 213.744 76.08 219.024V219.84C76.08 225.096 78.984 228.264 83.544 228.264Z" fill="#171725"/>
<path d="M215.153 172.556C215.204 172.659 215.237 172.77 215.252 172.884L215.531 177.024L215.669 179.105C215.67 179.319 215.704 179.532 215.769 179.736C215.936 180.133 216.337 180.385 216.774 180.367L223.431 179.932C223.72 179.927 223.998 180.035 224.205 180.231C224.378 180.395 224.489 180.61 224.525 180.84L224.536 180.98C224.261 184.795 221.459 187.977 217.652 188.798C213.846 189.619 209.942 187.884 208.061 184.535C207.518 183.562 207.18 182.492 207.064 181.389C207.016 181.062 206.995 180.732 207.001 180.403C206.995 176.313 209.907 172.777 213.984 171.925C214.475 171.848 214.956 172.108 215.153 172.556Z" fill="#75759E"/>
<path opacity="0.4" d="M217.87 169.001C222.43 169.117 226.262 172.396 227 176.812L226.993 176.845L226.973 176.892L226.976 177.022C226.965 177.195 226.899 177.361 226.784 177.494C226.665 177.634 226.501 177.729 226.322 177.766L226.212 177.781L218.531 178.279C218.276 178.304 218.021 178.221 217.831 178.052C217.673 177.911 217.572 177.72 217.543 177.515L217.028 169.845C217.019 169.819 217.019 169.791 217.028 169.765C217.035 169.554 217.128 169.354 217.286 169.21C217.444 169.067 217.655 168.991 217.87 169.001Z" fill="#75759E"/>
<rect x="276" y="139" width="260" height="122" rx="20" fill="white" stroke="#E2E2EA"/>
<path d="M305.318 184H306.536V174.984H309.448V173.99H302.406V174.984H305.318V184ZM313.023 183.16C311.539 183.16 310.629 182.068 310.629 180.402V180.29C310.629 178.61 311.553 177.518 313.023 177.518C314.479 177.518 315.417 178.61 315.417 180.304V180.402C315.417 182.054 314.493 183.16 313.023 183.16ZM313.009 184.126C315.095 184.126 316.621 182.6 316.621 180.388V180.276C316.621 178.078 315.095 176.552 313.023 176.552C310.951 176.552 309.425 178.092 309.425 180.29V180.402C309.425 182.544 310.923 184.126 313.009 184.126ZM320.646 184.098C321.122 184.098 321.402 184.028 321.64 183.944V182.964C321.388 183.062 321.108 183.118 320.744 183.118C320.156 183.118 319.834 182.768 319.834 182.054V177.658H321.542V176.678H319.834V175.012H318.672V176.678H317.622V177.658H318.672V182.166C318.672 183.314 319.316 184.098 320.646 184.098ZM325.299 184.126C326.377 184.126 327.035 183.762 327.581 183.076V184H328.743V179.17C328.743 177.126 327.469 176.552 326.069 176.552C324.655 176.552 323.325 177.168 323.171 178.834H324.333C324.445 177.938 325.005 177.518 326.013 177.518C327.133 177.518 327.581 178.008 327.581 179.17V179.702H326.531C324.655 179.702 322.863 180.276 322.863 181.97C322.863 183.468 323.941 184.126 325.299 184.126ZM325.411 183.202C324.389 183.202 324.025 182.726 324.025 181.97C324.025 180.892 325.103 180.528 326.573 180.528H327.581V181.438C327.581 182.572 326.643 183.202 325.411 183.202ZM331.054 184H332.23V173.178H331.054V184ZM338.397 184H339.559V175.418L344.613 184H346.013V173.99H344.851V182.264L339.979 173.99H338.397V184ZM351.496 183.16C350.012 183.16 349.102 182.068 349.102 180.402V180.29C349.102 178.61 350.026 177.518 351.496 177.518C352.952 177.518 353.89 178.61 353.89 180.304V180.402C353.89 182.054 352.966 183.16 351.496 183.16ZM351.482 184.126C353.568 184.126 355.094 182.6 355.094 180.388V180.276C355.094 178.078 353.568 176.552 351.496 176.552C349.424 176.552 347.898 178.092 347.898 180.29V180.402C347.898 182.544 349.396 184.126 351.482 184.126ZM363.65 183.16C362.166 183.16 361.256 182.068 361.256 180.402V180.29C361.256 178.61 362.18 177.518 363.65 177.518C365.106 177.518 366.044 178.61 366.044 180.304V180.402C366.044 182.054 365.12 183.16 363.65 183.16ZM363.636 184.126C365.722 184.126 367.248 182.6 367.248 180.388V180.276C367.248 178.078 365.722 176.552 363.65 176.552C361.578 176.552 360.052 178.092 360.052 180.29V180.402C360.052 182.544 361.55 184.126 363.636 184.126ZM369.299 184H370.461V177.658H372.253V176.678H370.461V175.362C370.461 174.62 370.769 174.102 371.525 174.102C371.847 174.102 372.141 174.172 372.351 174.256V173.276C372.057 173.178 371.861 173.136 371.483 173.136C370.027 173.136 369.299 174.004 369.299 175.488V176.678H368.249V177.658H369.299V184ZM380.63 184.126C382.394 184.126 383.668 182.95 383.822 181.368H382.744C382.618 182.558 381.68 183.16 380.644 183.16C379.23 183.16 378.25 182.208 378.25 180.416V180.304C378.25 178.582 379.272 177.518 380.602 177.518C381.61 177.518 382.45 177.952 382.632 179.114H383.78C383.556 177.252 382.128 176.552 380.602 176.552C378.642 176.552 377.046 178.064 377.046 180.304V180.416C377.046 182.684 378.586 184.126 380.63 184.126ZM385.604 184H386.78V173.178H385.604V184ZM391.636 184.126C392.812 184.126 393.624 183.524 393.96 182.838V184H395.122V176.678H393.96V181.116C393.96 182.432 392.98 183.118 391.944 183.118C390.796 183.118 390.25 182.544 390.25 181.256V176.678H389.088V181.312C389.088 183.328 390.18 184.126 391.636 184.126ZM399.739 184.126C401.517 184.126 402.427 183.23 402.427 181.9C402.427 180.346 401.363 180.01 399.851 179.73C398.507 179.492 398.143 179.226 398.143 178.568C398.143 177.938 398.689 177.518 399.529 177.518C400.453 177.518 400.901 177.868 401.069 178.666H402.189C401.993 177.084 400.859 176.552 399.543 176.552C398.395 176.552 397.065 177.252 397.065 178.61C397.065 179.884 397.709 180.416 399.613 180.766C400.747 180.976 401.321 181.228 401.321 181.998C401.321 182.782 400.831 183.16 399.725 183.16C398.549 183.16 398.087 182.614 398.003 181.746H396.869C396.939 183.244 397.989 184.126 399.739 184.126ZM406.423 184.098C406.899 184.098 407.179 184.028 407.417 183.944V182.964C407.165 183.062 406.885 183.118 406.521 183.118C405.933 183.118 405.611 182.768 405.611 182.054V177.658H407.319V176.678H405.611V175.012H404.449V176.678H403.399V177.658H404.449V182.166C404.449 183.314 405.093 184.098 406.423 184.098ZM412.17 184.126C413.822 184.126 415.04 183.356 415.292 181.886H414.13C413.976 182.74 413.318 183.16 412.184 183.16C410.686 183.16 409.888 182.236 409.832 180.57H415.348V180.192C415.348 177.574 413.752 176.552 412.058 176.552C410.042 176.552 408.628 178.092 408.628 180.304V180.416C408.628 182.67 410.098 184.126 412.17 184.126ZM409.874 179.632C410.07 178.33 410.868 177.518 412.058 177.518C413.262 177.518 414.046 178.12 414.158 179.632H409.874ZM417.131 184H418.293V179.982C418.293 178.176 419.231 177.714 420.701 177.644V176.552C419.385 176.594 418.755 177.168 418.293 177.994V176.678H417.131V184ZM424.594 184.126C426.372 184.126 427.282 183.23 427.282 181.9C427.282 180.346 426.218 180.01 424.706 179.73C423.362 179.492 422.998 179.226 422.998 178.568C422.998 177.938 423.544 177.518 424.384 177.518C425.308 177.518 425.756 177.868 425.924 178.666H427.044C426.848 177.084 425.714 176.552 424.398 176.552C423.25 176.552 421.92 177.252 421.92 178.61C421.92 179.884 422.564 180.416 424.468 180.766C425.602 180.976 426.176 181.228 426.176 181.998C426.176 182.782 425.686 183.16 424.58 183.16C423.404 183.16 422.942 182.614 422.858 181.746H421.724C421.794 183.244 422.844 184.126 424.594 184.126Z" fill="#75759E"/>
<path d="M310.136 228.264C314.216 228.264 316.736 225.888 316.736 222.36C316.736 218.904 314.312 216.792 311.072 216.792C309.008 216.792 307.712 217.656 306.92 218.928C307.016 215.4 308.336 213.528 310.472 213.528C311.96 213.528 312.536 214.224 312.776 215.352H316.376C315.992 212.208 313.832 210.6 310.424 210.6C306.224 210.6 303.08 213.84 303.08 219.648V220.08C303.08 224.76 304.952 228.264 310.136 228.264ZM310.088 225.456C308.36 225.456 307.16 224.256 307.16 222.288C307.16 220.584 308.36 219.36 310.088 219.36C311.84 219.36 312.92 220.608 312.92 222.408C312.92 224.208 311.792 225.456 310.088 225.456ZM326.226 225.216C323.826 225.216 322.554 223.416 322.554 219.816V219C322.554 215.448 323.778 213.6 326.178 213.6C328.554 213.6 329.754 215.544 329.754 219V219.768C329.754 223.368 328.65 225.216 326.226 225.216ZM326.13 228.264C330.762 228.264 333.618 225 333.618 219.744V218.952C333.618 213.624 330.57 210.6 326.154 210.6C321.738 210.6 318.666 213.744 318.666 219.024V219.84C318.666 225.096 321.57 228.264 326.13 228.264ZM343.335 225.216C340.935 225.216 339.663 223.416 339.663 219.816V219C339.663 215.448 340.887 213.6 343.287 213.6C345.663 213.6 346.863 215.544 346.863 219V219.768C346.863 223.368 345.759 225.216 343.335 225.216ZM343.239 228.264C347.871 228.264 350.727 225 350.727 219.744V218.952C350.727 213.624 347.679 210.6 343.263 210.6C338.847 210.6 335.775 213.744 335.775 219.024V219.84C335.775 225.096 338.679 228.264 343.239 228.264ZM360.445 225.216C358.045 225.216 356.773 223.416 356.773 219.816V219C356.773 215.448 357.997 213.6 360.397 213.6C362.773 213.6 363.973 215.544 363.973 219V219.768C363.973 223.368 362.869 225.216 360.445 225.216ZM360.349 228.264C364.981 228.264 367.837 225 367.837 219.744V218.952C367.837 213.624 364.789 210.6 360.373 210.6C355.957 210.6 352.885 213.744 352.885 219.024V219.84C352.885 225.096 355.789 228.264 360.349 228.264Z" fill="#171725"/>
<path d="M490.153 172.556C490.204 172.659 490.237 172.77 490.252 172.884L490.531 177.024L490.669 179.105C490.67 179.319 490.704 179.532 490.769 179.736C490.936 180.133 491.337 180.385 491.774 180.367L498.431 179.932C498.72 179.927 498.998 180.035 499.205 180.231C499.378 180.395 499.489 180.61 499.525 180.84L499.536 180.98C499.261 184.795 496.459 187.977 492.652 188.798C488.846 189.619 484.942 187.884 483.061 184.535C482.518 183.562 482.18 182.492 482.064 181.389C482.016 181.062 481.995 180.732 482.001 180.403C481.995 176.313 484.907 172.777 488.984 171.925C489.475 171.848 489.956 172.108 490.153 172.556Z" fill="#75759E"/>
<path opacity="0.4" d="M492.87 169.001C497.43 169.117 501.262 172.396 502 176.812L501.993 176.845L501.973 176.892L501.976 177.022C501.965 177.195 501.899 177.361 501.784 177.494C501.665 177.634 501.501 177.729 501.322 177.766L501.212 177.781L493.531 178.279C493.276 178.304 493.021 178.221 492.831 178.052C492.673 177.911 492.572 177.72 492.543 177.515L492.028 169.845C492.019 169.819 492.019 169.791 492.028 169.765C492.035 169.554 492.128 169.354 492.286 169.21C492.444 169.067 492.655 168.991 492.87 169.001Z" fill="#75759E"/>
<rect x="551" y="139" width="260" height="122" rx="20" fill="white" stroke="#E2E2EA"/>
<path d="M580.318 184H581.536V174.984H584.448V173.99H577.406V174.984H580.318V184ZM588.023 183.16C586.539 183.16 585.629 182.068 585.629 180.402V180.29C585.629 178.61 586.553 177.518 588.023 177.518C589.479 177.518 590.417 178.61 590.417 180.304V180.402C590.417 182.054 589.493 183.16 588.023 183.16ZM588.009 184.126C590.095 184.126 591.621 182.6 591.621 180.388V180.276C591.621 178.078 590.095 176.552 588.023 176.552C585.951 176.552 584.425 178.092 584.425 180.29V180.402C584.425 182.544 585.923 184.126 588.009 184.126ZM595.646 184.098C596.122 184.098 596.402 184.028 596.64 183.944V182.964C596.388 183.062 596.108 183.118 595.744 183.118C595.156 183.118 594.834 182.768 594.834 182.054V177.658H596.542V176.678H594.834V175.012H593.672V176.678H592.622V177.658H593.672V182.166C593.672 183.314 594.316 184.098 595.646 184.098ZM600.299 184.126C601.377 184.126 602.035 183.762 602.581 183.076V184H603.743V179.17C603.743 177.126 602.469 176.552 601.069 176.552C599.655 176.552 598.325 177.168 598.171 178.834H599.333C599.445 177.938 600.005 177.518 601.013 177.518C602.133 177.518 602.581 178.008 602.581 179.17V179.702H601.531C599.655 179.702 597.863 180.276 597.863 181.97C597.863 183.468 598.941 184.126 600.299 184.126ZM600.411 183.202C599.389 183.202 599.025 182.726 599.025 181.97C599.025 180.892 600.103 180.528 601.573 180.528H602.581V181.438C602.581 182.572 601.643 183.202 600.411 183.202ZM606.054 184H607.23V173.178H606.054V184ZM613.313 184H614.475V179.562C614.475 178.246 615.441 177.56 616.519 177.56C617.695 177.56 618.241 178.134 618.241 179.422V184H619.403V179.506C619.403 177.378 618.339 176.552 616.827 176.552C615.623 176.552 614.811 177.154 614.475 177.84V176.678H613.313V184ZM624.732 183.16C623.248 183.16 622.338 182.068 622.338 180.402V180.29C622.338 178.61 623.262 177.518 624.732 177.518C626.188 177.518 627.126 178.61 627.126 180.304V180.402C627.126 182.054 626.202 183.16 624.732 183.16ZM624.718 184.126C626.804 184.126 628.33 182.6 628.33 180.388V180.276C628.33 178.078 626.804 176.552 624.732 176.552C622.66 176.552 621.134 178.092 621.134 180.29V180.402C621.134 182.544 622.632 184.126 624.718 184.126ZM636.886 183.16C635.402 183.16 634.492 182.068 634.492 180.402V180.29C634.492 178.61 635.416 177.518 636.886 177.518C638.342 177.518 639.28 178.61 639.28 180.304V180.402C639.28 182.054 638.356 183.16 636.886 183.16ZM636.872 184.126C638.958 184.126 640.484 182.6 640.484 180.388V180.276C640.484 178.078 638.958 176.552 636.886 176.552C634.814 176.552 633.288 178.092 633.288 180.29V180.402C633.288 182.544 634.786 184.126 636.872 184.126ZM642.535 184H643.697V177.658H645.489V176.678H643.697V175.362C643.697 174.62 644.005 174.102 644.761 174.102C645.083 174.102 645.377 174.172 645.587 174.256V173.276C645.293 173.178 645.097 173.136 644.719 173.136C643.263 173.136 642.535 174.004 642.535 175.488V176.678H641.485V177.658H642.535V184ZM653.866 184.126C655.63 184.126 656.904 182.95 657.058 181.368H655.98C655.854 182.558 654.916 183.16 653.88 183.16C652.466 183.16 651.486 182.208 651.486 180.416V180.304C651.486 178.582 652.508 177.518 653.838 177.518C654.846 177.518 655.686 177.952 655.868 179.114H657.016C656.792 177.252 655.364 176.552 653.838 176.552C651.878 176.552 650.282 178.064 650.282 180.304V180.416C650.282 182.684 651.822 184.126 653.866 184.126ZM661.291 184.126C662.467 184.126 663.279 183.524 663.615 182.838V184H664.777V176.678H663.615V181.116C663.615 182.432 662.635 183.118 661.599 183.118C660.451 183.118 659.905 182.544 659.905 181.256V176.678H658.743V181.312C658.743 183.328 659.835 184.126 661.291 184.126ZM669.393 184.126C671.171 184.126 672.081 183.23 672.081 181.9C672.081 180.346 671.017 180.01 669.505 179.73C668.161 179.492 667.797 179.226 667.797 178.568C667.797 177.938 668.343 177.518 669.183 177.518C670.107 177.518 670.555 177.868 670.723 178.666H671.843C671.647 177.084 670.513 176.552 669.197 176.552C668.049 176.552 666.719 177.252 666.719 178.61C666.719 179.884 667.363 180.416 669.267 180.766C670.401 180.976 670.975 181.228 670.975 181.998C670.975 182.782 670.485 183.16 669.379 183.16C668.203 183.16 667.741 182.614 667.657 181.746H666.523C666.593 183.244 667.643 184.126 669.393 184.126ZM676.078 184.098C676.554 184.098 676.834 184.028 677.072 183.944V182.964C676.82 183.062 676.54 183.118 676.176 183.118C675.588 183.118 675.266 182.768 675.266 182.054V177.658H676.974V176.678H675.266V175.012H674.104V176.678H673.054V177.658H674.104V182.166C674.104 183.314 674.748 184.098 676.078 184.098ZM681.88 183.16C680.396 183.16 679.486 182.068 679.486 180.402V180.29C679.486 178.61 680.41 177.518 681.88 177.518C683.336 177.518 684.274 178.61 684.274 180.304V180.402C684.274 182.054 683.35 183.16 681.88 183.16ZM681.866 184.126C683.952 184.126 685.478 182.6 685.478 180.388V180.276C685.478 178.078 683.952 176.552 681.88 176.552C679.808 176.552 678.282 178.092 678.282 180.29V180.402C678.282 182.544 679.78 184.126 681.866 184.126ZM687.278 184H688.44V179.52C688.44 178.204 689.42 177.56 690.372 177.56C691.38 177.56 691.926 178.092 691.926 179.38V184H693.088V179.52C693.088 178.204 694.068 177.56 695.02 177.56C696.028 177.56 696.574 178.092 696.574 179.38V184H697.736V179.464C697.736 177.336 696.588 176.552 695.272 176.552C694.362 176.552 693.27 176.972 692.766 177.924C692.388 176.944 691.562 176.552 690.624 176.552C689.574 176.552 688.776 177.112 688.44 177.798V176.678H687.278V184ZM703.016 184.126C704.668 184.126 705.886 183.356 706.138 181.886H704.976C704.822 182.74 704.164 183.16 703.03 183.16C701.532 183.16 700.734 182.236 700.678 180.57H706.194V180.192C706.194 177.574 704.598 176.552 702.904 176.552C700.888 176.552 699.474 178.092 699.474 180.304V180.416C699.474 182.67 700.944 184.126 703.016 184.126ZM700.72 179.632C700.916 178.33 701.714 177.518 702.904 177.518C704.108 177.518 704.892 178.12 705.004 179.632H700.72ZM707.977 184H709.139V179.982C709.139 178.176 710.077 177.714 711.547 177.644V176.552C710.231 176.594 709.601 177.168 709.139 177.994V176.678H707.977V184ZM715.44 184.126C717.218 184.126 718.128 183.23 718.128 181.9C718.128 180.346 717.064 180.01 715.552 179.73C714.208 179.492 713.844 179.226 713.844 178.568C713.844 177.938 714.39 177.518 715.23 177.518C716.154 177.518 716.602 177.868 716.77 178.666H717.89C717.694 177.084 716.56 176.552 715.244 176.552C714.096 176.552 712.766 177.252 712.766 178.61C712.766 179.884 713.41 180.416 715.314 180.766C716.448 180.976 717.022 181.228 717.022 181.998C717.022 182.782 716.532 183.16 715.426 183.16C714.25 183.16 713.788 182.614 713.704 181.746H712.57C712.64 183.244 713.69 184.126 715.44 184.126Z" fill="#75759E"/>
<path d="M577.288 228H590.248V225.048H583.576L586.816 221.88C588.808 219.96 590.128 218.088 590.128 215.808C590.128 212.712 587.968 210.6 584.176 210.6C580.336 210.6 577.936 212.76 577.744 216.72H581.272C581.536 214.464 582.496 213.576 584.008 213.576C585.496 213.576 586.288 214.488 586.288 215.904C586.288 217.464 585.232 218.976 583.576 220.728L577.288 227.376V228ZM599.749 225.216C597.349 225.216 596.077 223.416 596.077 219.816V219C596.077 215.448 597.301 213.6 599.701 213.6C602.077 213.6 603.277 215.544 603.277 219V219.768C603.277 223.368 602.173 225.216 599.749 225.216ZM599.653 228.264C604.285 228.264 607.141 225 607.141 219.744V218.952C607.141 213.624 604.093 210.6 599.677 210.6C595.261 210.6 592.189 213.744 592.189 219.024V219.84C592.189 225.096 595.093 228.264 599.653 228.264ZM609.687 230.952L612.951 225.36L609.687 224.136L607.575 230.064L609.687 230.952ZM621.617 225.216C619.217 225.216 617.945 223.416 617.945 219.816V219C617.945 215.448 619.169 213.6 621.569 213.6C623.945 213.6 625.145 215.544 625.145 219V219.768C625.145 223.368 624.041 225.216 621.617 225.216ZM621.521 228.264C626.153 228.264 629.009 225 629.009 219.744V218.952C629.009 213.624 625.961 210.6 621.545 210.6C617.129 210.6 614.057 213.744 614.057 219.024V219.84C614.057 225.096 616.961 228.264 621.521 228.264ZM638.726 225.216C636.326 225.216 635.054 223.416 635.054 219.816V219C635.054 215.448 636.278 213.6 638.678 213.6C641.054 213.6 642.254 215.544 642.254 219V219.768C642.254 223.368 641.15 225.216 638.726 225.216ZM638.63 228.264C643.262 228.264 646.118 225 646.118 219.744V218.952C646.118 213.624 643.07 210.6 638.654 210.6C634.238 210.6 631.166 213.744 631.166 219.024V219.84C631.166 225.096 634.07 228.264 638.63 228.264ZM655.835 225.216C653.435 225.216 652.163 223.416 652.163 219.816V219C652.163 215.448 653.387 213.6 655.787 213.6C658.163 213.6 659.363 215.544 659.363 219V219.768C659.363 223.368 658.259 225.216 655.835 225.216ZM655.739 228.264C660.371 228.264 663.227 225 663.227 219.744V218.952C663.227 213.624 660.179 210.6 655.763 210.6C651.347 210.6 648.275 213.744 648.275 219.024V219.84C648.275 225.096 651.179 228.264 655.739 228.264Z" fill="#171725"/>
<path d="M765.153 172.556C765.204 172.659 765.237 172.77 765.252 172.884L765.531 177.024L765.669 179.105C765.67 179.319 765.704 179.532 765.769 179.736C765.936 180.133 766.337 180.385 766.774 180.367L773.431 179.932C773.72 179.927 773.998 180.035 774.205 180.231C774.378 180.395 774.489 180.61 774.525 180.84L774.536 180.98C774.261 184.795 771.459 187.977 767.652 188.798C763.846 189.619 759.942 187.884 758.061 184.535C757.518 183.562 757.18 182.492 757.064 181.389C757.016 181.062 756.995 180.732 757.001 180.403C756.995 176.313 759.907 172.777 763.984 171.925C764.475 171.848 764.956 172.108 765.153 172.556Z" fill="#75759E"/>
<path opacity="0.4" d="M767.87 169.001C772.43 169.117 776.262 172.396 777 176.812L776.993 176.845L776.973 176.892L776.976 177.022C776.965 177.195 776.899 177.361 776.784 177.494C776.665 177.634 776.501 177.729 776.322 177.766L776.212 177.781L768.531 178.279C768.276 178.304 768.021 178.221 767.831 178.052C767.673 177.911 767.572 177.72 767.543 177.515L767.028 169.845C767.019 169.819 767.019 169.791 767.028 169.765C767.035 169.554 767.128 169.354 767.286 169.21C767.444 169.067 767.655 168.991 767.87 169.001Z" fill="#75759E"/>
</svg>
