<svg width="17" height="17" viewBox="0 0 17 17" fill="none" xmlns="http://www.w3.org/2000/svg">
<path opacity="0.4" d="M8.33333 -9.53674e-06C12.9292 -9.53674e-06 16.6667 3.73832 16.6667 8.33332C16.6667 12.9283 12.9292 16.6667 8.33333 16.6667C3.73833 16.6667 0 12.9283 0 8.33332C0 3.73832 3.73833 -9.53674e-06 8.33333 -9.53674e-06Z" fill="#4568D1" fill-opacity="0.5"/>
<path d="M7.13132 4.81658C7.29048 4.81658 7.45048 4.87741 7.57215 4.99908L10.478 7.89074C10.5955 8.00824 10.6613 8.16741 10.6613 8.33408C10.6613 8.49991 10.5955 8.65908 10.478 8.77658L7.57215 11.6699C7.32798 11.9132 6.93298 11.9132 6.68882 11.6682C6.44548 11.4232 6.44632 11.0274 6.69048 10.7841L9.15132 8.33408L6.69048 5.88408C6.44632 5.64074 6.44548 5.24575 6.68882 5.00074C6.81048 4.87741 6.97132 4.81658 7.13132 4.81658Z" fill="#4568D1" fill-opacity="0.5"/>
</svg>
