<svg width="289" height="55" viewBox="0 0 289 55" fill="none" xmlns="http://www.w3.org/2000/svg">
<rect opacity="0.5" width="289" height="55" rx="27.5" fill="#E6E9EE"/>
<path d="M41.2 32.16C43.728 32.16 45.408 30.608 45.408 28.624C45.408 26.336 44.016 25.568 41.328 25.2C39.344 24.912 38.96 24.448 38.96 23.52C38.96 22.64 39.632 22.016 40.928 22.016C42.24 22.016 42.928 22.528 43.136 23.728H45.088C44.864 21.536 43.392 20.416 40.928 20.416C38.544 20.416 36.944 21.824 36.944 23.696C36.944 25.84 38.24 26.672 40.976 27.04C42.832 27.344 43.36 27.744 43.36 28.8C43.36 29.856 42.464 30.56 41.2 30.56C39.264 30.56 38.8 29.6 38.656 28.448H36.608C36.768 30.608 38.08 32.16 41.2 32.16ZM50.9883 32.16C53.1323 32.16 54.5563 31.2 54.8283 29.44H52.9563C52.8123 30.256 52.2043 30.72 51.0363 30.72C49.5963 30.72 48.7963 29.824 48.7323 28.24H54.8603V27.68C54.8603 24.688 52.9883 23.456 50.9083 23.456C48.5243 23.456 46.7483 25.184 46.7483 27.776V27.904C46.7483 30.544 48.5243 32.16 50.9883 32.16ZM48.7643 26.944C48.9563 25.648 49.7403 24.864 50.9083 24.864C52.1083 24.864 52.8443 25.504 52.9403 26.944H48.7643ZM58.8596 32.16C60.1396 32.16 60.8756 31.696 61.4196 30.976V32H63.3236V26.512C63.3236 24.224 61.8516 23.456 59.9796 23.456C58.1076 23.456 56.5556 24.272 56.3956 26.224H58.2676C58.3636 25.392 58.8596 24.912 59.8676 24.912C61.0036 24.912 61.3876 25.472 61.3876 26.592V27.024H60.3476C57.9476 27.024 56.0596 27.728 56.0596 29.68C56.0596 31.424 57.3236 32.16 58.8596 32.16ZM59.3236 30.768C58.3636 30.768 57.9796 30.304 57.9796 29.6C57.9796 28.576 58.9236 28.24 60.3956 28.24H61.3876V29.072C61.3876 30.144 60.5076 30.768 59.3236 30.768ZM65.5426 32H67.4786V27.648C67.4786 25.872 68.5026 25.328 70.1986 25.312V23.504C68.7906 23.52 68.0066 24.144 67.4786 25.2V23.632H65.5426V32ZM75.4098 32.16C77.6818 32.16 79.1378 30.8 79.2818 28.88H77.5058C77.3938 30.064 76.5138 30.672 75.4898 30.672C74.0658 30.672 73.1698 29.712 73.1698 27.888V27.76C73.1698 26.032 74.1138 25.008 75.4418 25.008C76.4658 25.008 77.2018 25.472 77.3618 26.592H79.2338C79.0098 24.288 77.2658 23.456 75.4098 23.456C73.0738 23.456 71.1858 25.136 71.1858 27.792V27.92C71.1858 30.592 73.0098 32.16 75.4098 32.16ZM80.9489 32H82.8849V27.072C82.8849 25.744 83.7649 25.072 84.8529 25.072C86.0049 25.072 86.5169 25.648 86.5169 26.912V32H88.4529V26.736C88.4529 24.432 87.2689 23.456 85.5889 23.456C84.2129 23.456 83.2849 24.144 82.8849 24.96V19.76H80.9489V32Z" fill="#1D293F"/>
<path fill-rule="evenodd" clip-rule="evenodd" d="M269.6 30.41L272.745 33.555C273.085 33.895 273.085 34.405 272.745 34.745C272.575 34.915 272.32 35 272.15 35C271.98 35 271.725 34.915 271.555 34.745L268.41 31.6C267.135 32.705 265.435 33.3 263.65 33.3C259.4 33.3 256 29.9 256 25.65C256 21.4 259.4 18 263.65 18C267.9 18 271.3 21.4 271.3 25.65C271.3 27.435 270.62 29.135 269.6 30.41ZM263.65 19.7C260.335 19.7 257.7 22.335 257.7 25.65C257.7 28.965 260.335 31.6 263.735 31.515C265.35 31.515 266.795 30.92 267.9 29.815C268.92 28.795 269.6 27.265 269.6 25.65C269.6 22.335 266.965 19.7 263.65 19.7Z" fill="#08CCAD"/>
</svg>
